<?xml version="1.0" encoding="utf-8"?>
<!-- Generator: Adobe Illustrator 23.0.3, SVG Export Plug-In . SVG Version: 6.00 Build 0)  -->
<svg version="1.1" id="Layer_1" xmlns="http://www.w3.org/2000/svg" xmlns:xlink="http://www.w3.org/1999/xlink" x="0px" y="0px"
	 viewBox="0 0 88.9 88.9" style="enable-background:new 0 0 88.9 88.9;" xml:space="preserve">
<style type="text/css">
	.st0{fill:#E8B601;}
</style>
<title>4</title>
<g id="surface1">
	<path class="st0" d="M63,11.9c0,4.9-1,7.1-2.7,8.3c-1.4,1.2-3.8,1.6-6.3,2c-2.5,0.4-5.4,0.8-7.7,2.5c-2,1.6-3.2,4.2-3.8,8.1H10.7
		c-3.4,0-6.3,2.9-6.3,6.3v31.7c0,3.4,2.9,6.3,6.3,6.3h66.7c3.4,0,6.3-2.9,6.3-6.3V39.1c0-3.4-2.9-6.3-6.3-6.3H45.9
		c0.4-3.1,1.2-4.7,2.5-5.6c1.4-1.2,3.6-1.6,6.3-1.8c2.5-0.4,5.4-0.8,7.9-2.7c2.4-2,3.8-5.4,3.8-10.9C66.5,11.9,63,11.9,63,11.9z
		 M10.7,36h66.7c1.8,0,3.2,1.4,3.2,3.2V71c0,1.8-1.4,3.2-3.2,3.2H10.7c-1.8,0-3.2-1.4-3.2-3.2V39.1C7.7,37.3,8.9,36,10.7,36z
		 M12.3,42.4v6.3h6.3v-6.3H12.3z M22,42.4v6.3h6.3v-6.3H22z M31.5,42.4v6.3h6.3v-6.3H31.5z M41,42.4v6.3h6.3v-6.3H41z M50.5,42.4
		v6.3h6.3v-6.3H50.5z M60,42.4v6.3h6.3v-6.3H60z M69.5,42.4v6.3h6.3v-6.3H69.5z M12.3,51.9v6.3h11.2v-6.3H12.3z M26.6,51.9v6.3h6.3
		v-6.3H26.6z M36.2,51.9v6.3h6.3v-6.3H36.2z M45.8,51.9v6.3h6.3v-6.3H45.8z M55.3,51.9v6.3h6.3v-6.3H55.3z M64.8,51.9v6.3H76v-6.3
		H64.8z M12.3,61.5v6.3h6.3v-6.3H12.3z M22,61.5v6.3h6.3v-6.3H22z M31.5,61.5v6.3h25.4v-6.3H31.5z M60,61.5v6.3h6.3v-6.3H60z
		 M69.5,61.5v6.3h6.3v-6.3H69.5z"/>
</g>
</svg>
