<?xml version="1.0" encoding="utf-8"?>
<!-- Generator: Adobe Illustrator 23.0.3, SVG Export Plug-In . SVG Version: 6.00 Build 0)  -->
<svg version="1.1" id="Layer_1" xmlns="http://www.w3.org/2000/svg" xmlns:xlink="http://www.w3.org/1999/xlink" x="0px" y="0px"
	 viewBox="0 0 88.6 88.6" style="enable-background:new 0 0 88.6 88.6;" xml:space="preserve">
<style type="text/css">
	.st0{fill:#E765A5;}
</style>
<title>6</title>
<g id="surface1">
	<path class="st0" d="M47.9,4.9c-3.4,0-6.3,2.9-6.3,6.3v0.9c-1.1-0.6-2.2-0.9-3.1-0.9c-1.4,0-3.1,0.6-4.1,1.4c-1.2,1.1-2,2.7-2,4.7
		v33.6l-5.1-6.1c0,0,0,0-0.2-0.2c-2.7-2.7-7.2-2.7-10.2,0c-2.7,2.7-2.7,7.2-0.2,10l0.2,0.2l18.1,23.3c2.7,3.4,6.9,5.6,11.2,5.6H59
		c7.8,0,14.3-6.3,14.3-14.3V25.5c0-3.4-2.9-6.3-6.3-6.3c-1.1,0-2.2,0.4-3.1,0.9v-5.6c0-3.4-2.9-6.3-6.3-6.3c-1.2,0-2.5,0.4-3.6,1.1
		C53,6.8,50.7,4.9,47.9,4.9z M47.9,8.2c1.8,0,3.1,1.4,3.1,3.1v28.3c0,0.2,0,0.2,0,0.4s0,0.4,0.2,0.4c0,0.2,0.2,0.4,0.2,0.4l0.2,0.2
		c0,0,0.2,0,0.2,0.2c0.2,0,0.4,0.2,0.4,0.2c0.2,0,0.4,0,0.8,0c0.2,0,0.4-0.2,0.4-0.2s0,0,0.2,0s0.2-0.2,0.2-0.2
		c0.2-0.2,0.2-0.2,0.4-0.4c0-0.2,0.2-0.4,0.2-0.6v-0.2V14.5c0-1.8,1.4-3.1,3.1-3.1c1.7,0,3.1,1.4,3.1,3.1v25.3c0,0.2,0,0.2,0,0.4
		s0,0.4,0.2,0.4c0,0.2,0.2,0.4,0.2,0.4l0.2,0.2c0,0,0.2,0,0.2,0.2c0.2,0,0.4,0.2,0.4,0.2c0.2,0,0.4,0,0.8,0c0.2,0,0.4-0.2,0.4-0.2
		s0,0,0.2,0l0.2-0.2c0.2-0.2,0.2-0.2,0.4-0.4c0-0.2,0.2-0.4,0.2-0.6V40V25.7c0-1.8,1.4-3.1,3.1-3.1c1.8,0,3.1,1.4,3.1,3.1v44
		c0,6.1-4.9,11-11,11H45.6c-3.4,0-6.7-1.6-8.7-4.3L18.7,52.9c0,0,0-0.2-0.2-0.2c-1.6-1.6-1.6-4.1,0-5.6c1.6-1.6,3.9-1.6,5.6,0
		l7.8,9.4c0.4,0.6,1.1,0.8,1.8,0.4c0.6-0.2,1.1-0.9,1.1-1.4V17.6c0-1.1,0.4-1.8,0.9-2.4c0.6-0.6,1.4-0.8,2.2-0.8s1.6,0.4,2.2,0.8
		c0.6,0.6,0.9,1.2,0.9,2.4v22c0,0.6,0.2,0.9,0.6,1.2c0.4,0.3,0.9,0.4,1.2,0.4c0.2,0,0.4-0.2,0.4-0.2s0,0,0.2,0s0.2-0.2,0.2-0.2
		c0.4-0.4,0.4-0.8,0.4-1.1V11.3C44.7,9.4,46.2,8.2,47.9,8.2z M47.8,50.6c-4.1,0-7.8,3.4-7.8,7.8c0,2.2,0.9,4.1,2.4,5.6l10.3,10.3
		L62.8,64c1.4-1.4,2.4-3.4,2.4-5.6c0-4.1-3.4-7.8-7.8-7.8c-2,0-3.6,0.9-4.9,2C51.2,51.5,49.5,50.6,47.8,50.6z M47.8,53.9
		c1.4,0,2.9,0.8,3.6,1.8l1.2,1.6l1.2-1.6c0.9-1.1,2.2-1.8,3.6-1.8c2.5,0,4.5,2,4.5,4.5c0,1.2-0.6,2.5-1.4,3.3l-8.1,7.9l-8.1-7.9
		c-0.9-0.9-1.4-2-1.4-3.3C43.2,55.9,45.2,53.9,47.8,53.9z"/>
</g>
</svg>
