<?xml version="1.0" encoding="utf-8"?>
<!-- Generator: Adobe Illustrator 23.0.3, SVG Export Plug-In . SVG Version: 6.00 Build 0)  -->
<svg version="1.1" id="Layer_1" xmlns="http://www.w3.org/2000/svg" xmlns:xlink="http://www.w3.org/1999/xlink" x="0px" y="0px"
	 viewBox="0 0 89 89" style="enable-background:new 0 0 89 89;" xml:space="preserve">
<style type="text/css">
	.st0{fill:#A55DF1;}
</style>
<title>5</title>
<g id="surface1">
	<path class="st0" d="M12.5,10.9h-0.2c-0.6,0.2-1.2,0.4-1.3,1.2c-0.2,0.7,0,1.2,0.5,1.7l63.7,63.7c0.7,0.7,1.7,0.7,2.4,0
		c0.7-0.7,0.7-1.7,0-2.4L63.4,61C74.5,55,82.1,46.1,82.6,45.7c0.5-0.7,0.5-1.5,0-2.2C82,42.6,64.6,22.8,44.5,22.8
		c-5.6,0-10.9,1.5-15.7,3.8l-15-15C13.6,11.1,13,10.9,12.5,10.9z M44.5,26.1c10.3,0,18.3,8.4,18.3,18.3c0,4.4-1.5,8.5-4.2,11.8
		l-8.5-8.5c0.5-1,1-2.1,1-3.4c0-3.8-3.1-6.7-6.7-6.7c-1.2,0-2.4,0.4-3.4,1l-8.5-8.4c2.7-2.2,5.9-3.8,9.7-4
		C43.2,26.1,43.9,26.1,44.5,26.1z M22.7,29.7C13.2,35.4,6.9,43,6.4,43.4c-0.5,0.7-0.5,1.5,0,2.2c0.7,0.8,16.7,19.2,35.9,20.6
		c0.7,0,1.5,0.2,2.2,0.2c0.5,0,1,0,1.5,0l0,0c3.8-0.2,7.3-1,10.9-2.4l-3.4-3.4c-2.7,1.5-5.8,2.4-9,2.4c-0.7,0-1.2,0-1.9-0.2
		c-9.4-1-16.6-8.8-16.6-18.3c0-3.2,0.8-6.3,2.4-9l-2.4-2.4c-2.1,3.4-3.4,7.3-3.4,11.6c0,5.1,1.9,9.9,4.8,13.6
		C19,53.7,12.3,47.2,9.8,44.7c2.2-2.4,7.8-8,15.3-12.4L22.7,29.7z M61.5,30.8c8.5,4.6,15.1,11.1,17.7,13.6
		C76.8,46.9,70,53.6,61.5,58c3.1-3.8,4.9-8.5,4.9-13.6C66.3,39.4,64.5,34.6,61.5,30.8z M37.8,44.9c0.2,3.4,2.9,6.3,6.5,6.5
		L37.8,44.9z"/>
</g>
</svg>
