<?xml version="1.0" encoding="utf-8"?>
<!-- Generator: Adobe Illustrator 23.0.3, SVG Export Plug-In . SVG Version: 6.00 Build 0)  -->
<svg version="1.1" id="Layer_1" xmlns="http://www.w3.org/2000/svg" xmlns:xlink="http://www.w3.org/1999/xlink" x="0px" y="0px"
	 viewBox="0 0 88.9 88.9" style="enable-background:new 0 0 88.9 88.9;" xml:space="preserve">
<style type="text/css">
	.st0{fill:#2496D4;}
</style>
<title>3</title>
<g id="surface1">
	<path class="st0" d="M42.7,7c-4.9,0-9.1,1-12.6,2.6c-0.6,0.2-1,0.7-1,1.2c-0.2,0.8,0.2,1.3,0.7,1.7s1.2,0.4,1.7,0
		c3.1-1.4,7-2.3,11.3-2.3c6.4,0,11.7,1.4,16.1,3.9c0.8,0.4,1.7,0.2,2.3-0.7c0.4-0.8,0.2-1.7-0.7-2.3C55.7,8.7,49.7,7,42.7,7z
		 M25.3,12.4c-0.2,0-0.6,0.2-0.7,0.4c-4.5,3.1-7.8,7.2-10.3,10.5c-1.2,1.7-2.3,3.1-2.9,4.3c-0.6,1.2-1.6,2.1-1.7,2.3
		c-0.6,0.4-0.9,0.9-0.9,1.6s0.6,1.2,1,1.4c0.6,0.2,1.2,0,1.7-0.4c0.8-0.7,1.6-1.6,2.5-2.8c0.8-1.2,1.9-2.6,2.9-4.2
		c2.3-3.1,5.4-6.8,9.4-9.6c0.7-0.4,0.8-1.2,0.7-1.9C26.9,12.8,26.4,12.2,25.3,12.4C25.4,12.4,25.4,12.4,25.3,12.4z M43.8,15.1
		c-0.8,0.2-1.6,0.8-1.4,1.9c0.2,0.8,0.8,1.6,1.9,1.4c16.4,0.8,23.2,10.1,26.2,20.4c2.9,10.3,1.4,21.8,0,26.2c-0.4,0.8,0.2,1.7,1,2.1
		c0.8,0.4,1.7-0.2,2.1-1c1.7-5.2,3.1-16.9,0-28.1S62.1,16.3,44.5,15.3c-0.2,0-0.2,0-0.4,0C44.2,15.1,44.2,15.1,43.8,15.1
		C44,15.1,44,15.1,43.8,15.1z M65.6,15.3c-0.7,0.2-1.2,0.7-1.2,1.2c-0.2,0.7,0.2,1.2,0.7,1.7C77.7,27,79.6,46.5,79.6,46.5
		c0,0.8,0.8,1.6,1.7,1.4c0.8,0,1.6-0.8,1.4-1.7c0,0-1.7-20.8-16.1-30.7C66.5,15.3,66.2,15.1,65.6,15.3z M37.7,15.7L37.7,15.7
		C26.5,18,21.1,25.7,16.9,32.1c-0.6,0.7-0.4,1.7,0.6,2.3c0.7,0.6,1.7,0.4,2.3-0.6c4.2-6.4,8.6-12.9,18.5-15c0.8-0.2,1.4-1,1.2-1.7
		C39.2,16.3,38.6,15.5,37.7,15.7z M44.5,23.1c-5.6,0-9.7,1.7-13.1,4.5c-0.7,0.6-0.8,1.6-0.2,2.3c0.6,0.7,1.6,0.8,2.3,0.2
		c2.8-2.3,6.3-3.9,11.1-3.9c1.4,0,2.8,0.2,4,0.4c0.6,0.2,1.2,0,1.6-0.6s0.6-1,0.4-1.6c-0.2-0.6-0.7-0.8-1.2-1
		C47.6,23.3,46,23.1,44.5,23.1z M54.5,25.4C54.5,25.4,54.5,25.6,54.5,25.4c-0.8,0.2-1.4,0.7-1.4,1.4c0,0.7,0.4,1.4,0.8,1.6
		c7,3.7,11.3,11.3,11.3,22c0,3.1-0.4,6.4-0.8,9.6c-0.2,0.8,0.4,1.7,1.2,1.9c0.8,0.2,1.7-0.4,1.9-1.2c0.6-3.3,1-6.8,1-10.1
		c0-11.3-4.9-20.6-13.1-24.8C55.1,25.6,54.8,25.4,54.5,25.4z M44.5,31.1c-4.2,0-7.5,1.4-9.9,3.5c-2.5,2.1-4.2,4.7-5.6,7.5
		c-0.4,0.8-0.2,1.7,0.7,2.3c0.8,0.6,1.7,0.2,2.3-0.7c1.4-2.6,2.9-5.1,4.9-6.6c1.9-1.6,4.3-2.6,7.8-2.6c3.3,0,5.8,1,7.7,2.8
		s3.3,4,4.2,6.6c0.2,0.6,0.6,1,1.2,1.2c0.6,0.2,1.2,0,1.6-0.6s0.6-1,0.4-1.6c-1-2.9-2.6-6-5.1-8C51.8,32.6,48.5,31.1,44.5,31.1z
		 M27.5,32c-0.4,0-0.8,0.4-1,0.7c-3.3,4.3-5.6,9.3-8.2,12.8c-2.6,3.5-5.2,5.5-10,5c-0.8,0-1.7,0.6-1.7,1.4s0.6,1.7,1.4,1.7
		c5.8,0.6,9.9-2.5,12.9-6.3c2.9-3.9,5.2-8.7,8.2-12.8c0.4-0.6,0.6-1,0.2-1.7C29,32.3,28.4,32,27.8,32C27.7,32,27.7,32,27.5,32
		L27.5,32z M14.7,36.5h-0.2c-0.4,0-0.7,0.4-1,0.7c-1.9,2.6-3.9,4.3-6.1,5.2c-0.6,0.2-1,0.6-1.2,1.2c-0.2,0.6,0,1.2,0.6,1.6
		s1.2,0.6,1.7,0.2c3.3-1,5.6-3.5,7.7-6.3c0.4-0.6,0.6-1.2,0.2-1.7C15.9,36.9,15.3,36.5,14.7,36.5z M41.7,38.3
		c-0.2,0-0.4,0.2-0.6,0.2c-2.8,1.6-4,4.5-5.2,7.7c-1,3.1-1.9,6.3-3.1,8.4c-3.1,6.1-9.3,12-17.5,12c-0.6,0-1,0.4-1.4,0.8
		c-0.4,0.6-0.4,1,0,1.6c0.4,0.6,0.8,0.8,1.4,0.8c9.7,0,16.7-7,20.2-13.8c1.4-2.6,2.3-6,3.1-8.7c1-2.8,2.3-5.1,3.7-6
		c0.7-0.4,1-1.2,0.8-1.9C43.3,38.4,42.4,38.1,41.7,38.3z M47.3,38.4c-0.7,0.2-1.2,0.7-1.2,1.2c-0.2,0.7,0.2,1.4,0.7,1.7
		c1.6,1,2.5,3.9,2.5,7.5c0,2.5-0.8,8.2-3.1,14c-2.3,6-6,12-11.3,15.9c-0.7,0.6-0.8,1.6-0.4,2.3c0.6,0.7,1.6,0.8,2.3,0.4
		C42.9,77.2,47,70.4,49.4,64c2.5-6.3,3.5-12,3.5-15.2c0-4.2-0.8-8.2-4-10.3C48.1,38.4,47.6,38.4,47.3,38.4z M44.2,45.6
		c-0.7,0.2-1.4,0.7-1.4,1.6c0,0-0.4,5.2-3.1,11.5c-0.4,0.6-0.4,1.2,0,1.7c0.4,0.6,0.8,0.8,1.6,0.7c0.7,0,1-0.6,1.2-1
		c2.9-6.8,3.5-12.6,3.5-12.6c0-0.6-0.2-1-0.6-1.2C45.2,45.8,44.7,45.6,44.2,45.6z M26.9,47.2c-0.6,0.2-0.8,0.4-1,0.8
		c-1.6,2.9-3.3,5.6-5.6,7.4c-2.3,1.9-5.2,2.9-9.6,2.9c-0.6,0-1,0.4-1.4,0.8c-0.4,0.6-0.4,1,0,1.6c0.4,0.6,0.8,0.8,1.4,0.8
		c5.1,0,8.7-1.4,11.7-3.7c2.8-2.3,4.7-5.2,6.4-8.4c0.4-0.6,0.4-1.2,0-1.7C28.3,47.4,27.7,47.2,26.9,47.2
		C27.1,47.2,27.1,47.2,26.9,47.2z M58.8,48.8h-0.2c-0.7,0.2-1.2,0.8-1.2,1.6c0,16.7-9.7,29-9.7,29c-0.6,0.7-0.4,1.7,0.4,2.3
		c0.7,0.6,1.7,0.4,2.3-0.4c0,0,10.3-13.1,10.3-31.1c0-0.6-0.2-0.8-0.6-1.2C59.6,48.9,59.2,48.8,58.8,48.8z M38,62.9
		c-0.6,0-0.8,0.4-1.2,0.7c-2.8,4.2-6.8,8.2-12.8,10.9c-0.8,0.4-1.2,1.2-0.8,2.1c0.4,0.9,1.2,1.2,2.1,0.8c6.6-2.9,11.1-7.4,14.2-12
		c0.4-0.6,0.4-1.2,0-1.7C39.2,63.3,38.8,62.9,38,62.9z M64.2,65.5c-0.7,0.2-1.2,0.7-1.2,1.2c-1.2,4.7-2.5,8-2.5,8
		c-0.2,0.6-0.2,1.2,0.2,1.6c0.4,0.6,1,0.7,1.6,0.6s1-0.6,1.2-1c0,0,1.4-3.5,2.6-8.4c0.2-0.6,0-1-0.4-1.4
		C65.4,65.7,64.9,65.5,64.2,65.5L64.2,65.5z"/>
</g>
</svg>
