<?xml version="1.0" encoding="utf-8"?>
<!-- Generator: Adobe Illustrator 23.0.3, SVG Export Plug-In . SVG Version: 6.00 Build 0)  -->
<svg version="1.1" id="Layer_1" xmlns="http://www.w3.org/2000/svg" xmlns:xlink="http://www.w3.org/1999/xlink" x="0px" y="0px"
	 viewBox="0 0 89 89" style="enable-background:new 0 0 89 89;" xml:space="preserve">
<style type="text/css">
	.st0{fill:#F45665;}
</style>
<title>1</title>
<g id="surface1">
	<path class="st0" d="M44.5,11.1c19.5,0,35.2,13.4,35.2,30s-15.7,30-35.2,30c-3,0-5.9-0.4-8.8-1.1l-1.9-0.6l-1.4,1.6
		c-1.1,1.4-5,5.3-11.3,6.3c1.2-2.1,2.1-4.4,2.7-6.7c0.6-1.7,0.6-2.7,0.6-3.4v-1.9l-1.6-1.1C14,58.7,9,50.1,9,41
		C9.4,24.5,25.1,11.1,44.5,11.1 M44.5,7.7C23.3,7.7,6,22.6,6,41.1C6,51.9,11.9,61.3,21,67.5c0,0.4,0,0.9-0.6,2.7
		c-0.6,2.1-1.7,5.3-4.2,8.6l-1.7,2.5h3c10.5,0,16.4-6.7,17.3-7.8c3,0.7,6.1,1.1,9.5,1.1C65.7,74.6,83,59.7,83,41.1
		C83.1,22.6,65.7,7.7,44.5,7.7z"/>
</g>
</svg>
