<?xml version="1.0" encoding="utf-8"?>
<!-- Generator: Adobe Illustrator 23.0.3, SVG Export Plug-In . SVG Version: 6.00 Build 0)  -->
<svg version="1.1" id="Layer_1" xmlns="http://www.w3.org/2000/svg" xmlns:xlink="http://www.w3.org/1999/xlink" x="0px" y="0px"
	 viewBox="0 0 89 89" style="enable-background:new 0 0 89 89;" xml:space="preserve">
<style type="text/css">
	.st0{fill:#28BF5E;}
</style>
<title>2</title>
<g id="surface1">
	<path class="st0" d="M16.7,5.4c-0.5,0.2-1.1,0.5-1.3,1.3l0,0c0,0.2-0.2,0.4-0.4,0.9c-0.5,0.7-1.5,2.1-3,4.1l0,0
		c-2.5,3-1.9,6.2-0.9,8.4c0.2,0.2,0.4,0.5,0.4,0.7h-1.4H9.9H9.8c-0.7,0.2-1.3,0.7-1.3,1.6V27c0,0.9,0.7,1.6,1.6,1.6h1.5
		c0,0.7,0,1.5,0.2,1.9c0.4,1.6,1.7,2.8,3.9,3.6c0.5,3.8,1.3,7.5,1.7,10.5c0.7,3.2,1.3,5.3,1.5,6l0,0c0.4,0.9,0.9,2.7,1.5,4.1
		c-0.4,0.7-0.9,2.1-1.6,4.3c-1.1,2.8-2.1,6-2.1,8.5c0,4.3,2.7,6.8,5.1,7.9c1.9,0.7,3.8,0.9,4.8,0.9c0.2,0.2,0.2,0.5,0.2,0.7
		c0.4,0.7,0.7,1.5,1.1,2.1c0.9,1.3,1.6,2.5,1.6,2.5c0.4,0.4,0.7,0.7,1.3,0.7h43.8c0.5,0,1.1-0.4,1.5-0.9l4.1-7.9
		c0-0.2,0.2-0.2,0.2-0.4c0.2-0.5,0.2-1.3,0-1.7c-0.2-0.5-0.7-1.3-1.5-1.6l-8.9-4.5c-0.4-0.2-0.7-0.2-1.1-0.4c-0.4,0-0.7,0-1.1,0.2
		c-0.5,0.2-1.1,0.7-1.5,1.1c0,0,0,0.2-0.2,0.2v0.2c-0.9-2.3-1.7-4.1-3-5.5c-1.9-2.1-4.3-3.4-6.8-3.4H43.6c-0.2,0-1.5-0.4-2.7-1.1
		c-1.3-0.7-2.7-1.7-4.1-2.8c-2.7-2.1-5-4.3-5-4.3c-0.2-0.2-0.2-0.2-0.4-0.2l0,0c0,0,0,0-0.2,0l0,0c0,0,0,0-0.2,0l0,0c0,0,0,0-0.2,0
		l0,0c0,0,0,0-0.2,0l0,0c-0.7-1.5-1.5-3.2-2.1-4.8c2.1,0.4,4.5,0.7,6.8,0.9c0.4,1.1,0.9,1.9,1.6,2.8c0.5,1.6,1.3,3,2.1,4.3
		c1.6,2.3,3.8,4.1,6.4,4.1c2.5,0,4.8-1.7,6.4-4.1c0.9-1.3,1.6-2.7,2.1-4.3c0.7-0.9,1.5-1.7,1.7-2.8c4.8-0.5,10.5-1.5,10.5-1.7
		c0-0.4-5.3-1.1-10.2-1.7c0-0.7-0.2-1.5-0.5-2.1c3.8-2.8,8.1-6.2,7.9-6.6c-0.2-0.4-5.3,1.7-9.8,3.6c-0.5-0.5-1.1-0.9-1.6-1.3
		c1.9-4.5,4.1-9.8,3.8-9.8c-0.4-0.4-3.9,4.5-6.8,8.4c-0.5-0.2-1.3-0.4-1.7-0.4C46.7,29,45.8,23,45.5,23c-0.4,0-1.3,6-1.7,10.9
		c-0.5,0-1.1,0.2-1.6,0.4c-2.8-3.9-6.6-8.5-7-8.4c-0.4,0.2,1.7,5.7,3.8,10c-0.5,0.4-1.1,0.9-1.6,1.3c-4.5-1.9-9.6-4.1-9.8-3.6
		c-0.2,0.4,4.1,3.8,7.9,6.6c-0.2,0.7-0.4,1.5-0.5,2.1c-2.5,0.4-5.1,0.5-7.1,0.9c-1.6-3.6-3-7.5-4.1-10.9c-0.2-1.3-0.4-2.3-0.5-3h1.1
		c0.9,0,1.6-0.7,1.6-1.6v-4.7c0-0.9-0.7-1.6-1.6-1.6H23c0.2-0.2,0.2-0.5,0.4-0.7l0,0c0.9-1.9,0.9-4.1,0.5-5.7
		c-0.4-1.7-0.9-3-1.6-4.1c-0.4-0.5-0.9-0.7-1.5-0.5c-0.2-0.9-0.7-1.7-1.1-2.3c-0.9-1.1-1.9-1.6-1.9-1.6C17.4,5.4,17.1,5.4,16.7,5.4z
		 M17.3,9.5c0.4,0.5,0.7,0.9,0.5,1.6c0,0,0,0,0,0.2c-0.4,1.5,0.2,2.8,1.9,3.2c0.4,0,0.5-0.4,0.7-0.4c0,0.4,0.2,0.4,0.2,0.5
		c0.2,1.3,0.2,2.7-0.4,4.1l0,0c-0.5,1.1-0.9,1.6-1.3,1.9l0,0h-3.8c-0.4-0.4-1.1-1.1-1.6-2.1c-0.7-1.5-1.1-3,0.7-5l0,0l0,0
		C15.8,11.7,16.7,10.6,17.3,9.5z M11.6,23.8h7.1c0.4,0.2,0.9,0.2,1.3,0h2.3v1.6h-1.1c-0.2,0-0.2,0-0.4,0c-0.2,0-0.2,0-0.4,0h-6
		c-0.2-0.2-0.5-0.2-0.9,0h-0.2h-1.9v-1.6H11.6z M14.8,28.5h5.1c0.2,0.7,0.5,1.7,0.7,3.8v0.2c1.9,6.4,5.3,13.9,8.2,19.6
		c-0.4,2.3-0.9,6.4-2.1,10.3c-0.2,0.4-0.2,0.7-0.4,0.9c-0.7-2.3-1.6-4.5-2.8-8.2l0,0c0.2-0.5,0-1.1-0.5-1.5
		c-0.4-1.3-1.1-2.8-1.3-3.8l0,0c0-0.2-0.7-2.7-1.5-5.9c-0.7-3.2-1.5-7.1-1.7-11.1c0-0.7-0.5-1.1-1.3-1.3c-1.9-0.4-2.5-1.3-2.7-1.9
		C14.4,29.1,14.6,28.8,14.8,28.5z M45.4,36.1c3.2,0,5.9,1.6,7.1,3.8c-0.4-0.2-0.7-0.5-1.1-0.7c-1.7-1.1-3.9-1.5-6-1.5
		s-4.3,0.5-6,1.6c-0.4,0.2-0.7,0.4-1.1,0.7C39.3,37.7,42.1,36.1,45.4,36.1z M45.4,40.7c1.6,0,3.4,0.5,4.5,1.1
		c1.1,0.7,1.6,1.3,1.6,2.1c0,0.9-0.2,1.6-0.4,2.5C51,46.6,51,46.8,51,47.1c-0.4,1.1-0.9,2.3-1.6,3.2c-1.3,1.7-3,2.8-3.9,2.8
		s-2.7-1.1-3.9-2.8c-0.7-0.9-1.3-2.1-1.6-3.2c0-0.2-0.2-0.4-0.2-0.5c-0.2-0.9-0.4-1.6-0.4-2.5c0-0.7,0.5-1.5,1.6-2.1
		C42.1,41.3,43.8,40.7,45.4,40.7z M31.7,53.4c0.9,0.7,1.7,1.6,3,2.5c1.5,1.1,2.8,2.3,4.3,3.2c1.5,0.9,2.7,1.6,4.3,1.6h12.8
		c1.6,0,3,0.7,4.5,2.3c1.5,1.6,2.5,4.1,3.4,7.5L59.5,79h-28c-0.2-0.4-0.5-0.7-1.1-1.6c-0.4-0.5-0.7-1.1-0.9-1.6
		c1.5-0.7,2.5-2.1,3.4-3.4c1.3-1.7,1.9-3.4,1.9-3.4c0.2-0.5,0.2-1.1-0.2-1.6c-0.4-0.5-0.9-0.7-1.5-0.7H33c-0.5,0.2-0.9,0.4-1.1,0.9
		c0,0-0.7,1.5-1.6,3c-1.1,1.5-2.3,2.5-3,2.5H27c-0.9,0-2.7,0-4.5-0.7C22.4,72,22,72,21.8,71.8c1.5,0,2.5-0.7,3.6-1.6
		c0.5-0.5,1.1-1.3,1.6-1.9l0.2-0.2l0,0c0.2-0.2,0.2-0.2,0.2-0.4c0,0,0-0.2,0.2-0.2l0,0c0.7-1.5,1.5-3,1.9-4.8
		C30.6,59.6,31.3,55.8,31.7,53.4z M21.7,59.2c1.5,4.1,2.5,7.3,2.7,7.9c-0.4,0.5-0.7,0.9-0.9,1.3c-0.5,0.5-1.1,0.7-1.5,0.7
		c-0.5,0-1.3-0.2-2.1-0.9C19.7,68,19.7,68,19.5,68c0-0.2,0-0.4,0-0.4c0-1.6,0.9-4.8,1.9-7.5C21.6,59.8,21.6,59.6,21.7,59.2z
		 M68.6,68.2l8.4,4.1l0,0l-3.6,6.6H62.8l3.9-7.5l0,0l0.2-0.5v-0.2L68.6,68.2z"/>
</g>
</svg>
