<?xml version="1.0" encoding="UTF-8"?>
<svg xmlns="http://www.w3.org/2000/svg" xmlns:xlink="http://www.w3.org/1999/xlink" width="96pt" height="96pt" viewBox="0 0 96 96" version="1.1">
<defs>
<linearGradient id="linear0" gradientUnits="userSpaceOnUse" x1="32" y1="5.75" x2="32" y2="58.2682" spreadMethod="reflect" gradientTransform="matrix(1.5,0,0,1.5,0,0)">
<stop offset="0" style="stop-color:#1A6DFF;stop-opacity:1;"/>
<stop offset="1" style="stop-color:#C822FF;stop-opacity:1;"/>
</linearGradient>
<linearGradient id="linear1" gradientUnits="userSpaceOnUse" x1="47" y1="5.75" x2="47" y2="58.2682" spreadMethod="reflect" gradientTransform="matrix(1.5,0,0,1.5,0,0)">
<stop offset="0" style="stop-color:#1A6DFF;stop-opacity:1;"/>
<stop offset="1" style="stop-color:#C822FF;stop-opacity:1;"/>
</linearGradient>
<linearGradient id="linear2" gradientUnits="userSpaceOnUse" x1="17" y1="5.75" x2="17" y2="58.2682" spreadMethod="reflect" gradientTransform="matrix(1.5,0,0,1.5,0,0)">
<stop offset="0" style="stop-color:#1A6DFF;stop-opacity:1;"/>
<stop offset="1" style="stop-color:#C822FF;stop-opacity:1;"/>
</linearGradient>
<linearGradient id="linear3" gradientUnits="userSpaceOnUse" x1="33" y1="5.75" x2="33" y2="58.2682" spreadMethod="reflect" gradientTransform="matrix(1.5,0,0,1.5,0,0)">
<stop offset="0" style="stop-color:#1A6DFF;stop-opacity:1;"/>
<stop offset="1" style="stop-color:#C822FF;stop-opacity:1;"/>
</linearGradient>
<linearGradient id="linear4" gradientUnits="userSpaceOnUse" x1="36" y1="8" x2="36" y2="10.2638" spreadMethod="reflect" gradientTransform="matrix(1.5,0,0,1.5,0,0)">
<stop offset="0" style="stop-color:#6DC7FF;stop-opacity:1;"/>
<stop offset="1" style="stop-color:#E6ABFF;stop-opacity:1;"/>
</linearGradient>
<linearGradient id="linear5" gradientUnits="userSpaceOnUse" x1="14" y1="53.9375" x2="14" y2="56.3158" spreadMethod="reflect" gradientTransform="matrix(1.5,0,0,1.5,0,0)">
<stop offset="0" style="stop-color:#6DC7FF;stop-opacity:1;"/>
<stop offset="1" style="stop-color:#E6ABFF;stop-opacity:1;"/>
</linearGradient>
<linearGradient id="linear6" gradientUnits="userSpaceOnUse" x1="50" y1="53.9375" x2="50" y2="56.3158" spreadMethod="reflect" gradientTransform="matrix(1.5,0,0,1.5,0,0)">
<stop offset="0" style="stop-color:#6DC7FF;stop-opacity:1;"/>
<stop offset="1" style="stop-color:#E6ABFF;stop-opacity:1;"/>
</linearGradient>
</defs>
<g id="surface1">
<path style=" stroke:none;fill-rule:nonzero;fill:url(#linear0);" d="M 87 45 L 87 42 C 87 40.34375 85.65625 39 84 39 L 84 36 C 84 34.34375 82.65625 33 81 33 L 75 33 C 73.34375 33 72 34.34375 72 36 L 72 39 L 66 39 L 66 36 C 66 34.34375 64.65625 33 63 33 L 62.910156 33 C 62.160156 26.257813 56.4375 21 49.5 21 L 49.5 18 L 61.5 18 L 61.5 9 L 46.5 9 L 46.5 21 C 39.5625 21 33.839844 26.257813 33.089844 33 L 33 33 C 31.34375 33 30 34.34375 30 36 L 30 39 L 24 39 L 24 36 C 24 34.34375 22.65625 33 21 33 L 15 33 C 13.34375 33 12 34.34375 12 36 L 12 39 C 10.34375 39 9 40.34375 9 42 L 9 45 C 9 46.65625 10.34375 48 12 48 L 12 84 L 9 84 L 9 87 L 87 87 L 87 84 L 84 84 L 84 48 C 85.65625 48 87 46.65625 87 45 Z M 49.5 12 L 58.5 12 L 58.5 15 L 49.5 15 Z M 75 36 L 81 36 L 81 39 L 75 39 Z M 46.5 24 L 49.5 24 C 54.777344 24 59.148438 27.921875 59.878906 33 L 36.121094 33 C 36.851563 27.921875 41.222656 24 46.5 24 Z M 33 36 L 63 36 L 63 39 L 33 39 Z M 15 36 L 21 36 L 21 39 L 15 39 Z M 12 42 L 84 42 L 84.003906 45 L 12 45 Z M 15 81 L 27 81 L 27 84 L 15 84 Z M 54 72 L 42 72 L 42 57 L 54 57 Z M 60 75 L 60 78 L 36 78 L 36 75 Z M 64.5 81 L 66 81 L 66 84 L 30 84 L 30 81 Z M 69 84 L 69 81 L 81 81 L 81 84 Z M 81 78 L 63 78 L 63 75 C 63 73.34375 61.65625 72 60 72 L 57 72 L 57 57 C 57 55.34375 55.65625 54 54 54 L 42 54 C 40.34375 54 39 55.34375 39 57 L 39 72 L 36 72 C 34.34375 72 33 73.34375 33 75 L 33 78 L 15 78 L 15 48 L 81 48 Z "/>
<path style=" stroke:none;fill-rule:nonzero;fill:url(#linear1);" d="M 66 69 L 75 69 C 76.65625 69 78 67.65625 78 66 L 78 57 C 78 55.34375 76.65625 54 75 54 L 66 54 C 64.34375 54 63 55.34375 63 57 L 63 66 C 63 67.65625 64.34375 69 66 69 Z M 66 57 L 75 57 L 75.003906 66 L 66 66 Z "/>
<path style=" stroke:none;fill-rule:nonzero;fill:url(#linear2);" d="M 21 69 L 30 69 C 31.65625 69 33 67.65625 33 66 L 33 57 C 33 55.34375 31.65625 54 30 54 L 21 54 C 19.34375 54 18 55.34375 18 57 L 18 66 C 18 67.65625 19.34375 69 21 69 Z M 21 57 L 30 57 L 30.003906 66 L 21 66 Z "/>
<path style=" stroke:none;fill-rule:nonzero;fill:url(#linear3);" d="M 48 61.5 L 51 61.5 L 51 67.5 L 48 67.5 Z "/>
<path style=" stroke:none;fill-rule:nonzero;fill:url(#linear4);" d="M 49.5 12 L 58.5 12 L 58.5 15 L 49.5 15 Z "/>
<path style=" stroke:none;fill-rule:nonzero;fill:url(#linear5);" d="M 15 81 L 27 81 L 27 84 L 15 84 Z "/>
<path style=" stroke:none;fill-rule:nonzero;fill:url(#linear6);" d="M 69 81 L 81 81 L 81 84 L 69 84 Z "/>
</g>
</svg>
