<?xml version="1.0" encoding="UTF-8"?>
<svg xmlns="http://www.w3.org/2000/svg" xmlns:xlink="http://www.w3.org/1999/xlink" width="96pt" height="96pt" viewBox="0 0 96 96" version="1.1">
<defs>
<linearGradient id="linear0" gradientUnits="userSpaceOnUse" x1="37" y1="16.125" x2="37" y2="22.38" spreadMethod="reflect" gradientTransform="matrix(1.5,0,0,1.5,0,0)">
<stop offset="0" style="stop-color:#6DC7FF;stop-opacity:1;"/>
<stop offset="1" style="stop-color:#E6ABFF;stop-opacity:1;"/>
</linearGradient>
<linearGradient id="linear1" gradientUnits="userSpaceOnUse" x1="39.5" y1="10" x2="39.5" y2="54.3882" spreadMethod="reflect" gradientTransform="matrix(1.5,0,0,1.5,0,0)">
<stop offset="0" style="stop-color:#1A6DFF;stop-opacity:1;"/>
<stop offset="1" style="stop-color:#C822FF;stop-opacity:1;"/>
</linearGradient>
<linearGradient id="linear2" gradientUnits="userSpaceOnUse" x1="31" y1="10" x2="31" y2="54.3882" spreadMethod="reflect" gradientTransform="matrix(1.5,0,0,1.5,0,0)">
<stop offset="0" style="stop-color:#1A6DFF;stop-opacity:1;"/>
<stop offset="1" style="stop-color:#C822FF;stop-opacity:1;"/>
</linearGradient>
<linearGradient id="linear3" gradientUnits="userSpaceOnUse" x1="27.5" y1="10" x2="27.5" y2="54.3882" spreadMethod="reflect" gradientTransform="matrix(1.5,0,0,1.5,0,0)">
<stop offset="0" style="stop-color:#1A6DFF;stop-opacity:1;"/>
<stop offset="1" style="stop-color:#C822FF;stop-opacity:1;"/>
</linearGradient>
<linearGradient id="linear4" gradientUnits="userSpaceOnUse" x1="19" y1="10" x2="19" y2="54.3882" spreadMethod="reflect" gradientTransform="matrix(1.5,0,0,1.5,0,0)">
<stop offset="0" style="stop-color:#1A6DFF;stop-opacity:1;"/>
<stop offset="1" style="stop-color:#C822FF;stop-opacity:1;"/>
</linearGradient>
<linearGradient id="linear5" gradientUnits="userSpaceOnUse" x1="19" y1="10" x2="19" y2="54.3882" spreadMethod="reflect" gradientTransform="matrix(1.5,0,0,1.5,0,0)">
<stop offset="0" style="stop-color:#1A6DFF;stop-opacity:1;"/>
<stop offset="1" style="stop-color:#C822FF;stop-opacity:1;"/>
</linearGradient>
<linearGradient id="linear6" gradientUnits="userSpaceOnUse" x1="17" y1="10" x2="17" y2="54.3882" spreadMethod="reflect" gradientTransform="matrix(1.5,0,0,1.5,0,0)">
<stop offset="0" style="stop-color:#1A6DFF;stop-opacity:1;"/>
<stop offset="1" style="stop-color:#C822FF;stop-opacity:1;"/>
</linearGradient>
<linearGradient id="linear7" gradientUnits="userSpaceOnUse" x1="16" y1="10" x2="16" y2="54.3882" spreadMethod="reflect" gradientTransform="matrix(1.5,0,0,1.5,0,0)">
<stop offset="0" style="stop-color:#1A6DFF;stop-opacity:1;"/>
<stop offset="1" style="stop-color:#C822FF;stop-opacity:1;"/>
</linearGradient>
</defs>
<g id="surface1">
<path style=" stroke:none;fill-rule:nonzero;fill:url(#linear0);" d="M 63 33 L 48 33 C 47.171875 33 46.5 32.328125 46.5 31.5 L 46.5 25.5 C 46.5 24.671875 47.171875 24 48 24 L 63 24 C 63.828125 24 64.5 24.671875 64.5 25.5 L 64.5 31.5 C 64.5 32.328125 63.828125 33 63 33 Z "/>
<path style=" stroke:none;fill-rule:nonzero;fill:url(#linear1);" d="M 87 54 C 87 49.550781 83.75 45.851563 79.5 45.136719 L 79.5 34.628906 C 79.5 33.464844 78.847656 32.425781 77.796875 31.921875 C 76.746094 31.417969 75.53125 31.554688 74.617188 32.28125 L 62.625 41.878906 C 62.578125 41.914063 62.546875 41.960938 62.503906 42 L 45 42 C 40.863281 42 37.5 45.363281 37.5 49.5 L 34.5 49.5 C 32.84375 49.5 31.5 50.84375 31.5 52.5 L 31.5 55.5 C 31.5 57.152344 32.84375 58.5 34.5 58.5 L 37.5 58.5 C 37.5 62.632813 40.863281 66 45 66 L 45 75 C 45 78.308594 47.691406 81 51 81 C 54.308594 81 57 78.308594 57 75 L 57 66 L 62.503906 66 C 62.546875 66.039063 62.578125 66.085938 62.625 66.121094 L 74.617188 75.714844 C 75.167969 76.152344 75.824219 76.378906 76.488281 76.378906 C 76.933594 76.378906 77.378906 76.277344 77.796875 76.078125 C 78.847656 75.574219 79.5 74.535156 79.5 73.371094 L 79.5 62.863281 C 83.75 62.148438 87 58.449219 87 54 Z M 34.5 55.5 L 34.5 52.5 L 37.5 52.5 L 37.5 55.5 Z M 54 75 C 54 76.65625 52.65625 78 51 78 C 49.34375 78 48 76.65625 48 75 L 48 66 L 54 66 Z M 45 63 C 42.519531 63 40.5 60.980469 40.5 58.5 L 40.5 49.5 C 40.5 47.019531 42.519531 45 45 45 L 61.5 45 L 61.5 63 Z M 76.492188 73.375 L 64.5 63.777344 L 64.5 44.21875 L 70.5 39.421875 L 70.5 54 L 73.5 54 L 73.5 37.027344 L 76.5 34.628906 L 76.503906 73.378906 C 76.503906 73.378906 76.5 73.378906 76.492188 73.375 Z M 79.5 59.785156 L 79.5 48.214844 C 82.078125 48.882813 84 51.214844 84 54 C 84 56.785156 82.078125 59.117188 79.5 59.785156 Z "/>
<path style=" stroke:none;fill-rule:nonzero;fill:url(#linear2);" d="M 43.5 51 L 43.5 54 L 46.5 54 L 46.5 51 L 49.5 51 L 49.5 48 L 46.5 48 C 44.84375 48 43.5 49.34375 43.5 51 Z "/>
<path style=" stroke:none;fill-rule:nonzero;fill:url(#linear3);" d="M 12 60 L 12 22.5 C 12 20.019531 14.019531 18 16.5 18 L 66 18 C 68.480469 18 70.5 20.019531 70.5 22.5 L 70.5 28.5 L 73.5 28.5 L 73.5 22.5 C 73.5 18.363281 70.136719 15 66 15 L 16.5 15 C 12.363281 15 9 18.363281 9 22.5 L 9 60 C 9 64.136719 12.363281 67.5 16.5 67.5 L 34.5 67.5 L 34.5 64.5 L 16.5 64.5 C 14.019531 64.5 12 62.480469 12 60 Z "/>
<path style=" stroke:none;fill-rule:nonzero;fill:url(#linear4);" d="M 18 24 L 39 24 L 39 27 L 18 27 Z "/>
<path style=" stroke:none;fill-rule:nonzero;fill:url(#linear5);" d="M 18 30 L 39 30 L 39 33 L 18 33 Z "/>
<path style=" stroke:none;fill-rule:nonzero;fill:url(#linear6);" d="M 18 36 L 33 36 L 33 39 L 18 39 Z "/>
<path style=" stroke:none;fill-rule:nonzero;fill:url(#linear7);" d="M 18 42 L 30 42 L 30 45 L 18 45 Z "/>
</g>
</svg>
