<?xml version="1.0" encoding="UTF-8"?>
<svg xmlns="http://www.w3.org/2000/svg" xmlns:xlink="http://www.w3.org/1999/xlink" width="96pt" height="96pt" viewBox="0 0 96 96" version="1.1">
<defs>
<linearGradient id="linear0" gradientUnits="userSpaceOnUse" x1="32.0003" y1="6.0017" x2="32.0003" y2="58.6897" spreadMethod="reflect" gradientTransform="matrix(1.5,0,0,1.5,0,0)">
<stop offset="0" style="stop-color:#1A6DFF;stop-opacity:1;"/>
<stop offset="1" style="stop-color:#C822FF;stop-opacity:1;"/>
</linearGradient>
<linearGradient id="linear1" gradientUnits="userSpaceOnUse" x1="11" y1="29.3333" x2="11" y2="51.064" spreadMethod="reflect" gradientTransform="matrix(1.5,0,0,1.5,0,0)">
<stop offset="0" style="stop-color:#6DC7FF;stop-opacity:1;"/>
<stop offset="1" style="stop-color:#E6ABFF;stop-opacity:1;"/>
</linearGradient>
</defs>
<g id="surface1">
<path style=" stroke:none;fill-rule:nonzero;fill:url(#linear0);" d="M 87 48 C 87 44.691406 84.308594 42 81 42 L 80.867188 42 L 81.082031 41.410156 C 81.792969 39.460938 81.703125 37.347656 80.824219 35.464844 C 80.792969 35.398438 80.75 35.347656 80.71875 35.289063 C 82.421875 35.121094 83.964844 34.050781 84.59375 32.390625 L 86.714844 26.785156 C 87.136719 25.671875 87.089844 24.460938 86.585938 23.378906 C 86.066406 22.265625 85.132813 21.429688 83.953125 21.015625 L 50.277344 9.265625 C 47.910156 8.4375 45.277344 9.632813 44.40625 11.933594 L 42.285156 17.539063 C 41.863281 18.652344 41.910156 19.863281 42.414063 20.941406 C 42.628906 21.40625 42.929688 21.808594 43.277344 22.164063 C 41.808594 22.972656 40.585938 24.238281 39.921875 25.894531 L 37.609375 31.667969 L 35.871094 36 L 31.5 36 C 27.921875 36 24.757813 37.800781 22.863281 40.542969 C 22.039063 39.605469 20.84375 39 19.5 39 L 13.5 39 C 11.015625 39 9 41.019531 9 43.5 L 9 76.5 C 9 78.980469 11.015625 81 13.5 81 L 19.5 81 C 21.582031 81 23.320313 79.570313 23.832031 77.652344 C 25.425781 79.359375 27 80.53125 30 80.878906 L 30 81 C 30 84.308594 32.691406 87 36 87 C 37.800781 87 39.398438 86.1875 40.5 84.925781 C 41.601563 86.1875 43.199219 87 45 87 C 46.800781 87 48.398438 86.1875 49.5 84.925781 C 50.601563 86.1875 52.199219 87 54 87 C 55.800781 87 57.398438 86.1875 58.5 84.925781 C 59.601563 86.1875 61.199219 87 63 87 C 66.308594 87 69 84 69 81 L 75 81 C 78.308594 81 81 78.308594 81 75 C 81 73.757813 80.617188 72.601563 79.96875 71.640625 C 82.308594 70.824219 84 68.617188 84 66 C 84 64.199219 83.1875 62.601563 81.925781 61.5 C 83.1875 60.398438 84 58.800781 84 57 C 84 55.757813 83.617188 54.601563 82.96875 53.640625 C 85.304688 52.824219 87 50.617188 87 48 Z M 45.089844 18.601563 L 47.210938 12.996094 C 47.507813 12.207031 48.441406 11.804688 49.285156 12.097656 L 82.964844 23.847656 C 83.371094 23.992188 83.695313 24.273438 83.867188 24.648438 C 84.027344 24.988281 84.042969 25.371094 83.910156 25.726563 L 81.789063 31.328125 C 81.488281 32.121094 80.558594 32.523438 79.710938 32.226563 L 50.917969 22.179688 L 49.527344 21.660156 C 49.386719 21.605469 49.242188 21.589844 49.101563 21.546875 L 46.035156 20.476563 C 45.628906 20.335938 45.304688 20.050781 45.128906 19.675781 C 44.972656 19.332031 44.957031 18.949219 45.089844 18.601563 Z M 40.390625 32.785156 L 42.707031 27.007813 C 43.554688 24.894531 45.878906 23.785156 48.042969 24.355469 L 49.863281 24.988281 L 54.972656 26.902344 L 55.015625 26.785156 L 75.523438 33.941406 C 75.523438 33.941406 77.566406 35.574219 78.105469 36.730469 C 78.644531 37.886719 78.699219 39.183594 78.265625 40.382813 L 77.675781 42 L 45.839844 42 L 40.417969 56.898438 C 40.007813 58.027344 39.179688 58.929688 38.089844 59.433594 C 37 59.945313 35.777344 60 34.652344 59.585938 C 32.320313 58.738281 31.113281 56.148438 31.945313 53.863281 Z M 21 76.5 C 21 77.328125 20.328125 78 19.5 78 L 13.5 78 C 12.671875 78 12 77.328125 12 76.5 L 12 43.5 C 12 42.671875 12.671875 42 13.5 42 L 19.5 42 C 20.328125 42 21 42.671875 21 43.5 Z M 36 84 C 34.34375 84 33 82.65625 33 81 L 33 78 C 33 76.34375 34.34375 75 36 75 C 37.65625 75 39 76.34375 39 78 L 39 81 C 39 82.65625 37.65625 84 36 84 Z M 45 84 C 43.34375 84 42 82.65625 42 81 L 42 76.5 C 42 74.84375 43.34375 73.5 45 73.5 C 46.65625 73.5 48 74.84375 48 76.5 L 48 81 C 48 82.65625 46.65625 84 45 84 Z M 54 84 C 52.34375 84 51 82.65625 51 81 L 51 78 C 51 76.34375 52.34375 75 54 75 C 55.65625 75 57 76.34375 57 78 L 57 81 C 57 82.65625 55.65625 84 54 84 Z M 63 84 C 61.34375 84 60 82.65625 60 81 C 60 79.34375 61.34375 78 63 78 C 64.652344 78 66 79.34375 66 81 C 66 82.65625 64.652344 84 63 84 Z M 81 51 L 63 51 L 63 54 L 78 54 C 79.652344 54 81 55.34375 81 57 C 81 58.65625 79.652344 60 78 60 L 63 60 L 63 63 L 78 63 C 79.652344 63 81 64.34375 81 66 C 81 67.65625 79.652344 69 78 69 L 63 69 L 63 72 L 75 72 C 76.652344 72 78 73.34375 78 75 C 78 76.65625 76.652344 78 75 78 L 68.164063 78 C 67.125 76.5 65.210938 75 63 75 C 61.753906 75 60.597656 75.382813 59.640625 76.03125 C 58.820313 73.691406 56.613281 72 54 72 C 52.519531 72 51.183594 72.558594 50.136719 73.449219 C 49.089844 71.691406 47.1875 70.5 45 70.5 C 42.808594 70.5 40.910156 71.691406 39.859375 73.449219 C 38.816406 72.558594 37.476563 72 36 72 C 32.742188 72 30.097656 74.613281 30.011719 77.851563 C 26.589844 77.160156 24 74.128906 24 70.5 L 24 46.5 C 24 42.363281 27.363281 39 31.5 39 L 34.667969 39 L 29.140625 52.789063 C 27.726563 56.675781 29.734375 60.988281 33.621094 62.402344 C 34.460938 62.707031 35.328125 62.859375 36.191406 62.859375 C 37.273438 62.859375 38.347656 62.625 39.355469 62.152344 C 41.171875 61.308594 42.550781 59.804688 43.234375 57.921875 L 47.941406 45 L 81 45 C 82.652344 45 84 46.34375 84 48 C 84 49.65625 82.652344 51 81 51 Z "/>
<path style=" stroke:none;fill-rule:nonzero;fill:url(#linear1);" d="M 18 73.5 C 18 74.328125 17.328125 75 16.5 75 C 15.671875 75 15 74.328125 15 73.5 L 15 46.5 C 15 45.671875 15.671875 45 16.5 45 C 17.328125 45 18 45.671875 18 46.5 Z "/>
</g>
</svg>
