<?xml version="1.0" encoding="UTF-8"?>
<svg xmlns="http://www.w3.org/2000/svg" xmlns:xlink="http://www.w3.org/1999/xlink" width="96pt" height="96pt" viewBox="0 0 96 96" version="1.1">
<defs>
<linearGradient id="linear0" gradientUnits="userSpaceOnUse" x1="32" y1="5.25" x2="32" y2="59.3086" spreadMethod="reflect" gradientTransform="matrix(1.5,0,0,1.5,0,0)">
<stop offset="0" style="stop-color:#1A6DFF;stop-opacity:1;"/>
<stop offset="1" style="stop-color:#C822FF;stop-opacity:1;"/>
</linearGradient>
<linearGradient id="linear1" gradientUnits="userSpaceOnUse" x1="37" y1="5.25" x2="37" y2="59.3086" spreadMethod="reflect" gradientTransform="matrix(1.5,0,0,1.5,0,0)">
<stop offset="0" style="stop-color:#1A6DFF;stop-opacity:1;"/>
<stop offset="1" style="stop-color:#C822FF;stop-opacity:1;"/>
</linearGradient>
<linearGradient id="linear2" gradientUnits="userSpaceOnUse" x1="35" y1="5.25" x2="35" y2="59.3086" spreadMethod="reflect" gradientTransform="matrix(1.5,0,0,1.5,0,0)">
<stop offset="0" style="stop-color:#1A6DFF;stop-opacity:1;"/>
<stop offset="1" style="stop-color:#C822FF;stop-opacity:1;"/>
</linearGradient>
<linearGradient id="linear3" gradientUnits="userSpaceOnUse" x1="33" y1="5.25" x2="33" y2="59.3086" spreadMethod="reflect" gradientTransform="matrix(1.5,0,0,1.5,0,0)">
<stop offset="0" style="stop-color:#1A6DFF;stop-opacity:1;"/>
<stop offset="1" style="stop-color:#C822FF;stop-opacity:1;"/>
</linearGradient>
<linearGradient id="linear4" gradientUnits="userSpaceOnUse" x1="41" y1="5.25" x2="41" y2="59.3086" spreadMethod="reflect" gradientTransform="matrix(1.5,0,0,1.5,0,0)">
<stop offset="0" style="stop-color:#1A6DFF;stop-opacity:1;"/>
<stop offset="1" style="stop-color:#C822FF;stop-opacity:1;"/>
</linearGradient>
<linearGradient id="linear5" gradientUnits="userSpaceOnUse" x1="31" y1="5.25" x2="31" y2="59.3086" spreadMethod="reflect" gradientTransform="matrix(1.5,0,0,1.5,0,0)">
<stop offset="0" style="stop-color:#1A6DFF;stop-opacity:1;"/>
<stop offset="1" style="stop-color:#C822FF;stop-opacity:1;"/>
</linearGradient>
<linearGradient id="linear6" gradientUnits="userSpaceOnUse" x1="27" y1="5.25" x2="27" y2="59.3086" spreadMethod="reflect" gradientTransform="matrix(1.5,0,0,1.5,0,0)">
<stop offset="0" style="stop-color:#1A6DFF;stop-opacity:1;"/>
<stop offset="1" style="stop-color:#C822FF;stop-opacity:1;"/>
</linearGradient>
<linearGradient id="linear7" gradientUnits="userSpaceOnUse" x1="23" y1="5.25" x2="23" y2="59.3086" spreadMethod="reflect" gradientTransform="matrix(1.5,0,0,1.5,0,0)">
<stop offset="0" style="stop-color:#1A6DFF;stop-opacity:1;"/>
<stop offset="1" style="stop-color:#C822FF;stop-opacity:1;"/>
</linearGradient>
<linearGradient id="linear8" gradientUnits="userSpaceOnUse" x1="19" y1="5.25" x2="19" y2="59.3086" spreadMethod="reflect" gradientTransform="matrix(1.5,0,0,1.5,0,0)">
<stop offset="0" style="stop-color:#1A6DFF;stop-opacity:1;"/>
<stop offset="1" style="stop-color:#C822FF;stop-opacity:1;"/>
</linearGradient>
<linearGradient id="linear9" gradientUnits="userSpaceOnUse" x1="15" y1="9.75" x2="15" y2="20.3757" spreadMethod="reflect" gradientTransform="matrix(1.5,0,0,1.5,0,0)">
<stop offset="0" style="stop-color:#6DC7FF;stop-opacity:1;"/>
<stop offset="1" style="stop-color:#E6ABFF;stop-opacity:1;"/>
</linearGradient>
</defs>
<g id="surface1">
<path style=" stroke:none;fill-rule:nonzero;fill:url(#linear0);" d="M 79.5 18 L 35.210938 18 C 33.355469 12.765625 28.363281 9 22.5 9 C 15.054688 9 9 15.054688 9 22.5 C 9 25.707031 10.128906 28.648438 12 30.96875 L 12 45.203125 C 12 46.3125 12.605469 47.324219 13.585938 47.847656 C 14.027344 48.085938 14.515625 48.199219 14.996094 48.199219 C 15.578125 48.199219 16.15625 48.03125 16.660156 47.695313 L 22.5 43.804688 L 28.339844 47.695313 C 29.261719 48.3125 30.441406 48.367188 31.417969 47.847656 C 32.394531 47.324219 33 46.3125 33 45.203125 L 33 30.96875 C 34.871094 28.648438 36 25.707031 36 22.5 C 36 21.992188 35.96875 21.492188 35.910156 21 L 73.539063 21 C 72.585938 22.257813 72 23.804688 72 25.5 L 72 79.5 C 72 81.980469 69.980469 84 67.5 84 C 65.019531 84 63 81.980469 63 79.5 L 63 72 L 24 72 L 24 51 L 21 51 L 21 72 L 9 72 L 9 79.5 C 9 83.636719 12.363281 87 16.5 87 L 67.5 87 C 71.636719 87 75 83.636719 75 79.5 L 75 33 L 87 33 L 87 25.5 C 87 21.363281 83.636719 18 79.5 18 Z M 24.160156 41.304688 C 23.152344 40.636719 21.847656 40.636719 20.832031 41.308594 L 15 45.203125 L 15 33.71875 C 17.148438 35.15625 19.726563 36 22.5 36 C 25.273438 36 27.851563 35.15625 30 33.71875 L 30.003906 45.199219 Z M 22.5 33 C 16.710938 33 12 28.289063 12 22.5 C 12 16.710938 16.710938 12 22.5 12 C 28.289063 12 33 16.710938 33 22.5 C 33 28.289063 28.289063 33 22.5 33 Z M 16.5 84 C 14.019531 84 12 81.980469 12 79.5 L 12 75 L 60 75 L 60 79.5 C 60 81.1875 60.558594 82.746094 61.503906 84 Z M 84 30 L 75 30 L 75 25.5 C 75 23.019531 77.019531 21 79.5 21 C 81.980469 21 84 23.019531 84 25.5 Z "/>
<path style=" stroke:none;fill-rule:nonzero;fill:url(#linear1);" d="M 42 33 L 69 33 L 69 36 L 42 36 Z "/>
<path style=" stroke:none;fill-rule:nonzero;fill:url(#linear2);" d="M 42 39 L 63 39 L 63 42 L 42 42 Z "/>
<path style=" stroke:none;fill-rule:nonzero;fill:url(#linear3);" d="M 42 45 L 57 45 L 57 48 L 42 48 Z "/>
<path style=" stroke:none;fill-rule:nonzero;fill:url(#linear4);" d="M 55.5 60 C 55.5 63.308594 58.191406 66 61.5 66 C 64.808594 66 67.5 63.308594 67.5 60 C 67.5 56.691406 64.808594 54 61.5 54 C 58.191406 54 55.5 56.691406 55.5 60 Z M 64.5 60 C 64.5 61.65625 63.15625 63 61.5 63 C 59.84375 63 58.5 61.65625 58.5 60 C 58.5 58.34375 59.84375 57 61.5 57 C 63.15625 57 64.5 58.34375 64.5 60 Z "/>
<path style=" stroke:none;fill-rule:nonzero;fill:url(#linear5);" d="M 45 57 L 48 57 L 48 63 L 45 63 Z "/>
<path style=" stroke:none;fill-rule:nonzero;fill:url(#linear6);" d="M 39 57 L 42 57 L 42 63 L 39 63 Z "/>
<path style=" stroke:none;fill-rule:nonzero;fill:url(#linear7);" d="M 33 57 L 36 57 L 36 63 L 33 63 Z "/>
<path style=" stroke:none;fill-rule:nonzero;fill:url(#linear8);" d="M 27 57 L 30 57 L 30 63 L 27 63 Z "/>
<path style=" stroke:none;fill-rule:nonzero;fill:url(#linear9);" d="M 30 22.5 C 30 26.640625 26.640625 30 22.5 30 C 18.359375 30 15 26.640625 15 22.5 C 15 18.359375 18.359375 15 22.5 15 C 26.640625 15 30 18.359375 30 22.5 Z "/>
</g>
</svg>
