<?xml version="1.0" encoding="UTF-8"?>
<svg xmlns="http://www.w3.org/2000/svg" xmlns:xlink="http://www.w3.org/1999/xlink" width="96pt" height="96pt" viewBox="0 0 96 96" version="1.1">
<defs>
<linearGradient id="linear0" gradientUnits="userSpaceOnUse" x1="32" y1="12.1667" x2="32" y2="51.9819" spreadMethod="reflect" gradientTransform="matrix(1.5,0,0,1.5,0,0)">
<stop offset="0" style="stop-color:#1A6DFF;stop-opacity:1;"/>
<stop offset="1" style="stop-color:#C822FF;stop-opacity:1;"/>
</linearGradient>
<linearGradient id="linear1" gradientUnits="userSpaceOnUse" x1="20" y1="12.1667" x2="20" y2="51.9819" spreadMethod="reflect" gradientTransform="matrix(1.5,0,0,1.5,0,0)">
<stop offset="0" style="stop-color:#1A6DFF;stop-opacity:1;"/>
<stop offset="1" style="stop-color:#C822FF;stop-opacity:1;"/>
</linearGradient>
<linearGradient id="linear2" gradientUnits="userSpaceOnUse" x1="22" y1="12.1667" x2="22" y2="51.9819" spreadMethod="reflect" gradientTransform="matrix(1.5,0,0,1.5,0,0)">
<stop offset="0" style="stop-color:#1A6DFF;stop-opacity:1;"/>
<stop offset="1" style="stop-color:#C822FF;stop-opacity:1;"/>
</linearGradient>
<linearGradient id="linear3" gradientUnits="userSpaceOnUse" x1="52" y1="12.1667" x2="52" y2="51.9819" spreadMethod="reflect" gradientTransform="matrix(1.5,0,0,1.5,0,0)">
<stop offset="0" style="stop-color:#1A6DFF;stop-opacity:1;"/>
<stop offset="1" style="stop-color:#C822FF;stop-opacity:1;"/>
</linearGradient>
<linearGradient id="linear4" gradientUnits="userSpaceOnUse" x1="47" y1="12.1667" x2="47" y2="51.9819" spreadMethod="reflect" gradientTransform="matrix(1.5,0,0,1.5,0,0)">
<stop offset="0" style="stop-color:#1A6DFF;stop-opacity:1;"/>
<stop offset="1" style="stop-color:#C822FF;stop-opacity:1;"/>
</linearGradient>
<linearGradient id="linear5" gradientUnits="userSpaceOnUse" x1="10" y1="35.5" x2="10" y2="46.25" spreadMethod="reflect" gradientTransform="matrix(1.5,0,0,1.5,0,0)">
<stop offset="0" style="stop-color:#6DC7FF;stop-opacity:1;"/>
<stop offset="1" style="stop-color:#E6ABFF;stop-opacity:1;"/>
</linearGradient>
</defs>
<g id="surface1">
<path style=" stroke:none;fill-rule:nonzero;fill:url(#linear0);" d="M 78 76.5 L 19.5 76.5 C 11.230469 76.5 4.5 69.769531 4.5 61.5 C 4.5 53.933594 10.128906 47.660156 17.417969 46.644531 C 16.808594 44.65625 16.5 42.601563 16.5 40.5 C 16.5 28.921875 25.921875 19.5 37.5 19.5 C 46.246094 19.5 53.988281 24.925781 57.078125 32.949219 C 59.644531 31.03125 62.738281 30 66 30 C 74.269531 30 81 36.730469 81 45 C 81 46.609375 80.746094 48.179688 80.242188 49.691406 C 86.617188 50.765625 91.5 56.339844 91.5 63 C 91.5 70.445313 85.445313 76.5 78 76.5 Z M 19.5 49.5 C 12.882813 49.5 7.5 54.882813 7.5 61.5 C 7.5 68.117188 12.882813 73.5 19.5 73.5 L 78 73.5 C 83.789063 73.5 88.5 68.789063 88.5 63 C 88.5 57.25 83.820313 52.539063 78.066406 52.503906 L 75.660156 52.488281 L 76.734375 50.335938 C 77.574219 48.652344 78 46.855469 78 45 C 78 38.382813 72.617188 33 66 33 C 62.746094 33 59.703125 34.285156 57.417969 36.621094 L 55.566406 38.519531 L 54.894531 35.949219 C 52.828125 28.03125 45.675781 22.5 37.5 22.5 C 27.574219 22.5 19.5 30.574219 19.5 40.5 C 19.5 42.890625 19.964844 45.21875 20.882813 47.421875 L 21.75 49.5 Z "/>
<path style=" stroke:none;fill-rule:nonzero;fill:url(#linear1);" d="M 25.5 40.5 L 22.5 40.5 C 22.5 32.230469 29.230469 25.5 37.5 25.5 L 37.5 28.5 C 30.882813 28.5 25.5 33.882813 25.5 40.5 Z "/>
<path style=" stroke:none;fill-rule:nonzero;fill:url(#linear2);" d="M 31.5 40.5 L 28.5 40.5 C 28.5 35.535156 32.535156 31.5 37.5 31.5 L 37.5 34.5 C 34.191406 34.5 31.5 37.191406 31.5 40.5 Z "/>
<path style=" stroke:none;fill-rule:nonzero;fill:url(#linear3);" d="M 78 70.5 C 73.863281 70.5 70.5 67.136719 70.5 63 C 70.5 58.863281 73.863281 55.5 78 55.5 C 82.136719 55.5 85.5 58.863281 85.5 63 C 85.5 67.136719 82.136719 70.5 78 70.5 Z M 78 58.5 C 75.519531 58.5 73.5 60.519531 73.5 63 C 73.5 65.480469 75.519531 67.5 78 67.5 C 80.480469 67.5 82.5 65.480469 82.5 63 C 82.5 60.519531 80.480469 58.5 78 58.5 Z "/>
<path style=" stroke:none;fill-rule:nonzero;fill:url(#linear4);" d="M 75 45 L 72 45 C 72 41.691406 69.308594 39 66 39 L 66 36 C 70.964844 36 75 40.035156 75 45 Z "/>
<path style=" stroke:none;fill-rule:nonzero;fill:url(#linear5);" d="M 19.5 70.5 C 14.527344 70.5 10.5 66.472656 10.5 61.5 C 10.5 56.527344 14.527344 52.5 19.5 52.5 Z "/>
</g>
</svg>
