<?xml version="1.0" encoding="UTF-8"?>
<svg xmlns="http://www.w3.org/2000/svg" xmlns:xlink="http://www.w3.org/1999/xlink" width="100pt" height="100pt" viewBox="0 0 100 100" version="1.1">
<g id="surface1">
<path style=" stroke:none;fill-rule:nonzero;fill:#000000;fill-opacity:1;" d="M 24.738281 3.96875 L 23.128906 4.773438 L 22.816406 6.511719 L 24.058594 7.8125 L 24.738281 7.9375 L 26.722656 7.9375 L 28.273438 7.128906 L 28.582031 5.394531 L 27.40625 4.09375 L 26.722656 3.96875 Z M 32.675781 3.96875 L 31.0625 4.773438 L 30.753906 6.511719 L 31.933594 7.8125 L 32.675781 7.9375 L 34.660156 7.9375 L 36.210938 7.128906 L 36.519531 5.394531 L 35.34375 4.09375 L 34.660156 3.96875 Z M 40.550781 3.96875 L 39 4.773438 L 38.691406 6.511719 L 39.867188 7.8125 L 40.550781 7.9375 L 42.535156 7.9375 L 44.148438 7.128906 L 44.457031 5.394531 L 43.214844 4.09375 L 42.535156 3.96875 Z M 48.488281 3.96875 L 46.9375 4.773438 L 46.566406 6.511719 L 47.804688 7.8125 L 48.488281 7.9375 L 50.472656 7.9375 L 52.082031 7.128906 L 52.394531 5.394531 L 51.152344 4.09375 L 50.472656 3.96875 Z M 56.421875 3.96875 L 54.8125 4.773438 L 54.5 6.511719 L 55.742188 7.8125 L 56.421875 7.9375 L 58.40625 7.9375 L 60.019531 7.128906 L 60.328125 5.394531 L 59.089844 4.09375 L 58.40625 3.96875 Z M 64.359375 3.96875 L 62.746094 4.773438 L 62.4375 6.511719 L 63.679688 7.8125 L 64.359375 7.9375 L 66.34375 7.9375 L 67.894531 7.128906 L 68.203125 5.394531 L 67.027344 4.09375 L 66.34375 3.96875 Z M 72.296875 3.96875 L 70.683594 4.773438 L 70.375 6.511719 L 71.550781 7.8125 L 72.296875 7.9375 L 74.28125 7.9375 L 75.832031 7.128906 L 76.140625 5.394531 L 74.960938 4.09375 L 74.28125 3.96875 Z M 18.910156 4.898438 L 18.230469 5.023438 L 16.742188 5.582031 L 16.617188 5.582031 L 16.554688 5.640625 L 16.183594 5.828125 L 15.066406 7.253906 L 15.5625 8.929688 L 17.238281 9.609375 L 17.917969 9.425781 L 18.105469 9.300781 L 18.292969 9.238281 L 19.59375 8.742188 L 20.769531 7.441406 L 20.460938 5.703125 Z M 80.792969 4.960938 L 78.992188 5.144531 L 78.125 6.695313 L 78.808594 8.308594 L 79.425781 8.679688 L 80.914063 9.238281 L 81.101563 9.300781 L 82.898438 9.300781 L 83.890625 7.8125 L 83.394531 6.136719 L 82.835938 5.703125 L 82.652344 5.640625 L 82.589844 5.582031 L 82.464844 5.582031 Z M 86.558594 8.742188 L 85.132813 9.859375 L 85.195313 11.59375 L 85.628906 12.152344 L 86.308594 12.773438 L 86.433594 12.898438 L 86.867188 13.453125 L 88.542969 14.074219 L 90.03125 13.144531 L 90.214844 11.347656 L 89.84375 10.789063 L 89.222656 10.105469 L 89.101563 9.984375 L 88.292969 9.238281 Z M 11.347656 9.050781 L 10.789063 9.363281 L 10.105469 9.984375 L 9.984375 10.105469 L 9.238281 10.914063 L 8.742188 12.648438 L 9.859375 14.074219 L 11.59375 14.011719 L 12.152344 13.578125 L 12.773438 12.898438 L 12.898438 12.773438 L 13.453125 12.339844 L 14.074219 10.664063 L 13.144531 9.175781 Z M 49.601563 11.90625 C 39.929688 11.90625 31.109375 15.578125 24.429688 21.578125 L 17.300781 14.445313 C 16.820313 13.949219 16.113281 13.742188 15.4375 13.890625 C 14.695313 14.019531 14.097656 14.5625 13.890625 15.285156 C 13.679688 16.011719 13.898438 16.789063 14.445313 17.300781 L 21.578125 24.429688 C 15.578125 31.109375 11.90625 39.929688 11.90625 49.601563 C 11.90625 59.277344 15.578125 68.097656 21.578125 74.777344 L 14.445313 81.90625 C 13.65625 82.699219 13.65625 83.96875 14.445313 84.757813 C 15.238281 85.550781 16.507813 85.550781 17.300781 84.757813 L 24.429688 77.628906 C 31.109375 83.628906 39.929688 87.300781 49.601563 87.300781 C 59.277344 87.300781 68.097656 83.628906 74.777344 77.628906 L 81.90625 84.757813 C 82.699219 85.550781 83.96875 85.550781 84.757813 84.757813 C 85.550781 83.96875 85.550781 82.699219 84.757813 81.90625 L 77.628906 74.777344 C 83.628906 68.097656 87.300781 59.277344 87.300781 49.601563 C 87.300781 39.929688 83.628906 31.109375 77.628906 24.429688 L 84.757813 17.300781 C 85.402344 16.703125 85.574219 15.757813 85.1875 14.972656 C 84.804688 14.183594 83.945313 13.75 83.085938 13.890625 C 82.644531 13.933594 82.226563 14.136719 81.90625 14.445313 L 74.777344 21.578125 C 68.097656 15.578125 59.277344 11.90625 49.601563 11.90625 Z M 91.953125 15.066406 L 90.277344 15.5625 L 89.597656 17.238281 L 89.78125 17.917969 L 89.90625 18.105469 L 89.96875 18.292969 L 90.464844 19.59375 L 91.765625 20.769531 L 93.503906 20.460938 L 94.308594 18.910156 L 94.183594 18.230469 L 93.625 16.742188 L 93.625 16.617188 L 93.5625 16.554688 L 93.378906 16.183594 Z M 7.8125 15.316406 L 6.136719 15.8125 L 5.703125 16.367188 L 5.640625 16.554688 L 5.582031 16.617188 L 5.582031 16.742188 L 4.960938 18.414063 L 5.144531 20.214844 L 6.695313 21.082031 L 8.308594 20.398438 L 8.679688 19.777344 L 9.238281 18.292969 L 9.300781 18.105469 L 9.300781 16.308594 Z M 49.601563 15.871094 C 58.207031 15.871094 66.035156 19.082031 71.988281 24.367188 L 62.128906 34.226563 C 58.710938 31.429688 54.355469 29.761719 49.601563 29.761719 C 44.851563 29.761719 40.496094 31.429688 37.078125 34.226563 L 27.21875 24.367188 C 33.171875 19.082031 41 15.871094 49.601563 15.871094 Z M 92.695313 22.816406 L 91.394531 24.058594 L 91.269531 24.738281 L 91.269531 26.722656 L 92.074219 28.273438 L 93.8125 28.582031 L 95.113281 27.40625 L 95.238281 26.722656 L 95.238281 24.738281 L 94.433594 23.128906 Z M 5.394531 23.066406 L 4.09375 24.242188 L 3.96875 24.988281 L 3.96875 26.910156 L 4.773438 28.523438 L 6.511719 28.832031 L 7.8125 27.652344 L 7.9375 26.910156 L 7.9375 24.988281 L 7.128906 23.375 Z M 24.367188 27.21875 L 34.226563 37.078125 C 31.429688 40.496094 29.761719 44.851563 29.761719 49.601563 C 29.761719 54.355469 31.429688 58.710938 34.226563 62.128906 L 24.367188 71.988281 C 19.082031 66.035156 15.871094 58.207031 15.871094 49.601563 C 15.871094 41 19.082031 33.171875 24.367188 27.21875 Z M 74.839844 27.21875 C 80.125 33.171875 83.332031 41 83.332031 49.601563 C 83.332031 58.207031 80.125 66.035156 74.839844 71.988281 L 64.980469 62.128906 C 67.777344 58.710938 69.445313 54.355469 69.445313 49.601563 C 69.445313 44.851563 67.777344 40.496094 64.980469 37.078125 Z M 92.695313 30.753906 L 91.394531 31.992188 L 91.269531 32.675781 L 91.269531 34.660156 L 92.074219 36.210938 L 93.8125 36.519531 L 95.113281 35.34375 L 95.238281 34.660156 L 95.238281 32.675781 L 94.433594 31.0625 Z M 5.394531 31.003906 L 4.09375 32.179688 L 3.96875 32.863281 L 3.96875 34.847656 L 4.773438 36.457031 L 6.511719 36.769531 L 7.8125 35.527344 L 7.9375 34.847656 L 7.9375 32.863281 L 7.128906 31.3125 Z M 49.601563 33.730469 C 53.277344 33.730469 56.65625 34.9375 59.335938 37.015625 L 49.601563 46.75 L 39.867188 37.015625 C 42.550781 34.9375 45.929688 33.730469 49.601563 33.730469 Z M 92.695313 38.691406 L 91.394531 39.867188 L 91.269531 40.550781 L 91.269531 42.535156 L 92.074219 44.148438 L 93.8125 44.457031 L 95.113281 43.214844 L 95.238281 42.535156 L 95.238281 40.550781 L 94.433594 39 Z M 5.394531 38.875 L 4.09375 40.117188 L 3.96875 40.796875 L 3.96875 42.78125 L 4.773438 44.394531 L 6.511719 44.703125 L 7.8125 43.464844 L 7.9375 42.78125 L 7.9375 40.796875 L 7.128906 39.1875 Z M 37.015625 39.867188 L 46.75 49.601563 L 37.015625 59.335938 C 34.9375 56.65625 33.730469 53.277344 33.730469 49.601563 C 33.730469 45.929688 34.9375 42.550781 37.015625 39.867188 Z M 62.191406 39.867188 C 64.265625 42.550781 65.476563 45.929688 65.476563 49.601563 C 65.476563 53.277344 64.265625 56.65625 62.191406 59.335938 L 52.457031 49.601563 Z M 92.695313 46.628906 L 91.394531 47.804688 L 91.269531 48.488281 L 91.269531 50.472656 L 92.074219 52.082031 L 93.8125 52.394531 L 95.113281 51.152344 L 95.238281 50.472656 L 95.238281 48.488281 L 94.433594 46.9375 Z M 5.394531 46.8125 L 4.09375 48.054688 L 3.96875 48.734375 L 3.96875 50.71875 L 4.773438 52.269531 L 6.511719 52.640625 L 7.8125 51.402344 L 7.9375 50.71875 L 7.9375 48.734375 L 7.128906 47.121094 Z M 49.601563 52.457031 L 59.335938 62.191406 C 56.65625 64.265625 53.277344 65.476563 49.601563 65.476563 C 45.929688 65.476563 42.550781 64.265625 39.867188 62.191406 Z M 92.695313 54.5 L 91.394531 55.742188 L 91.269531 56.421875 L 91.269531 58.40625 L 92.074219 60.019531 L 93.8125 60.328125 L 95.113281 59.089844 L 95.238281 58.40625 L 95.238281 56.421875 L 94.433594 54.8125 Z M 5.394531 54.75 L 4.09375 55.988281 L 3.96875 56.671875 L 3.96875 58.65625 L 4.773438 60.207031 L 6.511719 60.515625 L 7.8125 59.335938 L 7.9375 58.65625 L 7.9375 56.671875 L 7.128906 55.058594 Z M 92.695313 62.4375 L 91.394531 63.679688 L 91.269531 64.359375 L 91.269531 66.34375 L 92.074219 67.894531 L 93.8125 68.203125 L 95.113281 67.027344 L 95.238281 66.34375 L 95.238281 64.359375 L 94.433594 62.746094 Z M 5.394531 62.6875 L 4.09375 63.863281 L 3.96875 64.546875 L 3.96875 66.53125 L 4.773438 68.140625 L 6.511719 68.453125 L 7.8125 67.273438 L 7.9375 66.53125 L 7.9375 64.546875 L 7.128906 62.996094 Z M 37.078125 64.980469 C 40.496094 67.777344 44.851563 69.445313 49.601563 69.445313 C 54.355469 69.445313 58.710938 67.777344 62.128906 64.980469 L 71.988281 74.839844 C 66.035156 80.125 58.207031 83.332031 49.601563 83.332031 C 41 83.332031 33.171875 80.125 27.21875 74.839844 Z M 92.695313 70.375 L 91.394531 71.550781 L 91.269531 72.296875 L 91.269531 74.28125 L 92.074219 75.832031 L 93.8125 76.140625 L 95.113281 74.960938 L 95.238281 74.28125 L 95.238281 72.296875 L 94.433594 70.683594 Z M 5.394531 70.621094 L 4.09375 71.800781 L 3.96875 72.484375 L 3.96875 74.464844 L 4.773438 76.078125 L 6.511719 76.390625 L 7.8125 75.148438 L 7.9375 74.464844 L 7.9375 72.484375 L 7.128906 70.933594 Z M 92.511719 78.125 L 90.898438 78.808594 L 90.527344 79.425781 L 89.96875 80.914063 L 89.90625 81.101563 L 89.90625 82.898438 L 91.394531 83.890625 L 93.066406 83.394531 L 93.503906 82.835938 L 93.5625 82.652344 L 93.625 82.589844 L 93.625 82.464844 L 94.246094 80.792969 L 94.058594 79.054688 Z M 7.441406 78.433594 L 5.703125 78.746094 L 4.898438 80.296875 L 5.023438 80.976563 L 5.582031 82.464844 L 5.582031 82.589844 L 5.640625 82.652344 L 5.828125 83.023438 L 7.253906 84.140625 L 8.929688 83.644531 L 9.609375 81.96875 L 9.425781 81.289063 L 9.300781 81.101563 L 9.238281 80.914063 L 8.742188 79.613281 Z M 10.664063 85.132813 L 9.175781 86.0625 L 9.050781 87.859375 L 9.425781 88.417969 L 9.984375 89.101563 L 10.105469 89.222656 L 10.914063 89.96875 L 12.648438 90.464844 L 14.074219 89.347656 L 14.011719 87.613281 L 13.578125 87.054688 L 12.898438 86.433594 L 12.773438 86.308594 L 12.339844 85.75 Z M 89.347656 85.132813 L 87.613281 85.195313 L 87.054688 85.628906 L 86.433594 86.308594 L 86.308594 86.433594 L 85.75 86.867188 L 85.132813 88.542969 L 86.0625 90.03125 L 87.859375 90.214844 L 88.417969 89.84375 L 89.101563 89.222656 L 89.222656 89.101563 L 89.96875 88.292969 L 90.464844 86.558594 Z M 81.96875 89.597656 L 81.289063 89.78125 L 81.101563 89.90625 L 80.914063 89.96875 L 79.613281 90.464844 L 78.433594 91.765625 L 78.746094 93.503906 L 80.296875 94.308594 L 80.976563 94.183594 L 82.464844 93.625 L 82.589844 93.625 L 82.652344 93.5625 L 83.023438 93.378906 L 84.140625 91.953125 L 83.644531 90.277344 Z M 18.105469 89.90625 L 16.308594 89.96875 L 15.316406 91.394531 L 15.8125 93.066406 L 16.367188 93.503906 L 16.554688 93.5625 L 16.617188 93.625 L 16.742188 93.625 L 18.414063 94.246094 L 20.214844 94.058594 L 21.082031 92.511719 L 20.398438 90.898438 L 19.777344 90.527344 L 18.292969 89.96875 Z M 24.988281 91.269531 L 23.375 92.074219 L 23.066406 93.8125 L 24.242188 95.113281 L 24.988281 95.238281 L 26.910156 95.238281 L 28.523438 94.433594 L 28.832031 92.695313 L 27.652344 91.394531 L 26.910156 91.269531 Z M 32.863281 91.269531 L 31.3125 92.074219 L 31.003906 93.8125 L 32.179688 95.113281 L 32.863281 95.238281 L 34.847656 95.238281 L 36.457031 94.433594 L 36.769531 92.695313 L 35.527344 91.394531 L 34.847656 91.269531 Z M 40.796875 91.269531 L 39.1875 92.074219 L 38.875 93.8125 L 40.117188 95.113281 L 40.796875 95.238281 L 42.78125 95.238281 L 44.394531 94.433594 L 44.703125 92.695313 L 43.464844 91.394531 L 42.78125 91.269531 Z M 48.734375 91.269531 L 47.121094 92.074219 L 46.8125 93.8125 L 48.054688 95.113281 L 48.734375 95.238281 L 50.71875 95.238281 L 52.269531 94.433594 L 52.640625 92.695313 L 51.402344 91.394531 L 50.71875 91.269531 Z M 56.671875 91.269531 L 55.058594 92.074219 L 54.75 93.8125 L 55.988281 95.113281 L 56.671875 95.238281 L 58.65625 95.238281 L 60.207031 94.433594 L 60.515625 92.695313 L 59.335938 91.394531 L 58.65625 91.269531 Z M 64.609375 91.269531 L 62.996094 92.074219 L 62.6875 93.8125 L 63.863281 95.113281 L 64.609375 95.238281 L 66.53125 95.238281 L 68.140625 94.433594 L 68.453125 92.695313 L 67.273438 91.394531 L 66.53125 91.269531 Z M 72.484375 91.269531 L 70.933594 92.074219 L 70.621094 93.8125 L 71.800781 95.113281 L 72.484375 95.238281 L 74.464844 95.238281 L 76.078125 94.433594 L 76.390625 92.695313 L 75.148438 91.394531 L 74.464844 91.269531 Z "/>
</g>
</svg>
