<?xml version="1.0" encoding="UTF-8"?>
<svg xmlns="http://www.w3.org/2000/svg" xmlns:xlink="http://www.w3.org/1999/xlink" width="100pt" height="100pt" viewBox="0 0 100 100" version="1.1">
<g id="surface1">
<path style=" stroke:none;fill-rule:nonzero;fill:#000000;fill-opacity:1;" d="M 49.417969 1.921875 C 49.332031 1.9375 49.246094 1.960938 49.167969 1.984375 C 48.246094 2.195313 47.597656 3.023438 47.617188 3.96875 L 47.617188 5.269531 C 47.441406 5.726563 47.441406 6.238281 47.617188 6.695313 L 47.617188 13.890625 L 35.714844 13.890625 C 35.652344 13.890625 35.589844 13.890625 35.527344 13.890625 C 35.464844 13.890625 35.402344 13.890625 35.34375 13.890625 C 34.824219 13.988281 34.367188 14.300781 34.078125 14.742188 C 33.785156 15.183594 33.683594 15.726563 33.792969 16.246094 C 33.792969 16.246094 34.046875 17.796875 34.351563 19.839844 L 25.792969 19.839844 L 25.792969 11.285156 C 28.078125 10.5 29.101563 10.890625 30.566406 11.472656 C 32.28125 12.152344 34.945313 13.246094 38.441406 11.78125 C 39.472656 11.371094 39.96875 10.207031 39.558594 9.175781 C 39.148438 8.144531 37.984375 7.648438 36.953125 8.058594 C 34.496094 9.089844 33.894531 8.5625 31.992188 7.8125 C 31.039063 7.433594 29.839844 7.0625 28.335938 7.007813 C 27.964844 6.992188 27.570313 6.976563 27.15625 7.007813 C 26.714844 7.039063 26.210938 7.152344 25.730469 7.253906 C 25.445313 6.355469 24.5625 5.789063 23.625 5.890625 C 23.539063 5.90625 23.453125 5.929688 23.375 5.953125 C 22.453125 6.160156 21.800781 6.992188 21.824219 7.9375 L 21.824219 9.113281 C 21.5625 9.664063 21.5625 10.300781 21.824219 10.851563 L 21.824219 19.839844 L 9.921875 19.839844 C 9.859375 19.839844 9.796875 19.839844 9.734375 19.839844 C 9.167969 19.894531 8.648438 20.199219 8.324219 20.65625 C 7.992188 21.121094 7.875 21.703125 8 22.257813 C 8 22.257813 9.921875 30.941406 9.921875 39.683594 C 9.921875 48.136719 6.199219 54.5625 6.199219 54.5625 C 5.84375 55.183594 5.84375 55.941406 6.207031 56.554688 C 6.566406 57.167969 7.222656 57.546875 7.9375 57.539063 L 38.875 57.539063 C 39.796875 57.53125 40.597656 56.886719 40.796875 55.988281 C 40.796875 55.988281 41.363281 53.484375 41.789063 51.585938 L 54.191406 51.585938 C 53.957031 52.238281 53.820313 52.640625 53.820313 52.640625 C 53.492188 53.253906 53.507813 53.988281 53.867188 54.585938 C 54.222656 55.183594 54.867188 55.546875 55.554688 55.554688 L 83.210938 55.554688 C 83.9375 55.546875 84.605469 55.144531 84.945313 54.5 C 84.945313 54.5 85.605469 53.292969 86.183594 51.152344 C 86.765625 49.015625 87.300781 45.835938 87.300781 41.667969 C 87.300781 32.992188 82.960938 24.863281 82.960938 24.863281 C 82.621094 24.21875 81.953125 23.816406 81.226563 23.808594 L 72.792969 23.808594 C 72.542969 22.273438 72.226563 20.964844 71.925781 19.777344 C 72.03125 19.75 72.132813 19.703125 72.234375 19.65625 C 75.503906 18.222656 76.472656 18.726563 78.1875 19.40625 C 79.898438 20.089844 82.566406 21.183594 86.0625 19.71875 C 87.09375 19.304688 87.589844 18.144531 87.175781 17.113281 C 86.765625 16.082031 85.605469 15.585938 84.574219 15.996094 C 82.117188 17.027344 81.511719 16.5 79.613281 15.75 C 78.660156 15.371094 77.457031 14.996094 75.953125 14.941406 C 75.582031 14.925781 75.1875 14.910156 74.777344 14.941406 C 73.597656 15.035156 72.265625 15.378906 70.808594 15.996094 C 70.722656 15.773438 70.5 15.128906 70.5 15.128906 C 70.203125 14.394531 69.492188 13.90625 68.699219 13.890625 L 51.585938 13.890625 L 51.585938 7.070313 C 55.222656 5.054688 57.664063 5.757813 60.082031 6.757813 C 61.398438 7.300781 62.625 8.015625 64.050781 8.433594 C 65.476563 8.851563 67.546875 8.71875 68.886719 7.378906 C 69.675781 6.589844 69.675781 5.316406 68.886719 4.527344 C 68.097656 3.734375 66.824219 3.734375 66.035156 4.527344 C 65.707031 4.851563 65.925781 4.8125 65.167969 4.589844 C 64.40625 4.363281 63.121094 3.742188 61.570313 3.101563 C 60.019531 2.457031 58.082031 1.882813 55.867188 1.921875 C 54.441406 1.945313 52.882813 2.277344 51.277344 2.914063 C 50.898438 2.253906 50.175781 1.867188 49.417969 1.921875 Z M 38.007813 17.855469 L 67.148438 17.855469 C 67.40625 18.539063 68.164063 20.382813 68.761719 23.808594 L 55.554688 23.808594 C 55.492188 23.808594 55.429688 23.808594 55.371094 23.808594 C 54.789063 23.863281 54.261719 24.167969 53.929688 24.648438 C 53.59375 25.128906 53.484375 25.722656 53.632813 26.289063 C 53.632813 26.289063 55.679688 34.117188 55.679688 41.667969 C 55.679688 44.046875 55.453125 46.007813 55.183594 47.617188 L 37.015625 47.617188 C 38.28125 45.09375 39.683594 41.433594 39.683594 35.714844 C 39.683594 30.527344 39.132813 25.609375 38.628906 22.011719 C 38.675781 21.679688 38.628906 21.335938 38.503906 21.019531 C 38.3125 19.71875 38.140625 18.609375 38.007813 17.855469 Z M 12.277344 23.808594 L 34.847656 23.808594 C 35.28125 27.414063 35.714844 31.730469 35.714844 35.714844 C 35.714844 44.171875 32.179688 48.363281 32.179688 48.363281 C 31.699219 48.960938 31.605469 49.773438 31.941406 50.464844 C 32.273438 51.152344 32.96875 51.585938 33.730469 51.585938 L 37.761719 51.585938 C 37.605469 52.308594 37.464844 52.953125 37.328125 53.570313 L 10.976563 53.570313 C 12.222656 50.804688 13.890625 46.339844 13.890625 39.683594 C 13.890625 32.351563 12.8125 26.515625 12.277344 23.808594 Z M 58.035156 27.777344 L 79.859375 27.777344 C 80.542969 29.203125 83.332031 35.171875 83.332031 41.667969 C 83.332031 45.488281 82.828125 48.285156 82.339844 50.097656 C 82.054688 51.160156 81.945313 51.207031 81.785156 51.585938 L 58.347656 51.585938 C 58.429688 51.316406 58.445313 51.402344 58.53125 51.089844 C 58.578125 50.929688 58.609375 50.710938 58.65625 50.535156 C 58.679688 50.496094 58.703125 50.449219 58.71875 50.410156 C 58.726563 50.394531 58.710938 50.363281 58.71875 50.347656 C 58.742188 50.285156 58.765625 50.222656 58.78125 50.160156 C 58.8125 50.039063 58.835938 49.914063 58.839844 49.789063 C 59.292969 47.734375 59.648438 45.054688 59.648438 41.667969 C 59.648438 35.417969 58.648438 30.414063 58.035156 27.777344 Z M 47.617188 53.570313 L 47.617188 63.492188 L 25.792969 63.492188 L 25.792969 59.523438 L 21.824219 59.523438 L 21.824219 60.640625 L 21.265625 60.082031 C 20.886719 59.710938 20.367188 59.507813 19.839844 59.523438 L 1.984375 59.523438 C 0.890625 59.523438 0 60.414063 0 61.507813 C 0 70.25 3.835938 76.054688 7.625 79.488281 C 8.921875 80.660156 10.136719 81.511719 11.285156 82.21875 C 9.269531 82.976563 7.160156 83.332031 5.640625 83.332031 C 4.410156 83.332031 3.378906 83.210938 2.355469 83.023438 C 1.277344 82.8125 0.242188 83.527344 0.03125 84.605469 C -0.179688 85.683594 0.535156 86.71875 1.613281 86.929688 C 2.789063 87.140625 4.132813 87.300781 5.640625 87.300781 C 8.457031 87.300781 12.253906 86.417969 15.625 84.261719 C 16.128906 84.324219 16.640625 84.195313 17.050781 83.890625 C 20.5625 86.332031 24.667969 87.300781 27.652344 87.300781 C 30.753906 87.300781 34.96875 86.230469 38.566406 83.582031 C 42.171875 86.253906 46.496094 87.300781 49.601563 87.300781 C 52.710938 87.300781 57.035156 86.261719 60.640625 83.582031 C 64.234375 86.230469 68.453125 87.300781 71.550781 87.300781 C 74.382813 87.300781 78.21875 86.433594 81.597656 84.261719 C 81.929688 84.21875 82.257813 84.09375 82.527344 83.890625 C 82.527344 83.890625 82.707031 83.757813 82.773438 83.707031 C 86.332031 86.261719 90.519531 87.300781 93.5625 87.300781 C 95.316406 87.300781 96.773438 86.984375 97.964844 86.496094 C 98.996094 86.085938 99.492188 84.921875 99.082031 83.890625 C 98.671875 82.859375 97.507813 82.363281 96.476563 82.773438 C 95.71875 83.085938 94.8125 83.332031 93.5625 83.332031 C 91.457031 83.332031 88.269531 82.691406 85.691406 81.164063 C 89.953125 77.25 97.261719 69.1875 99.207031 57.851563 C 99.308594 57.238281 99.113281 56.617188 98.6875 56.167969 C 98.261719 55.71875 97.648438 55.484375 97.035156 55.554688 L 75.210938 57.539063 C 74.855469 57.570313 74.511719 57.703125 74.21875 57.910156 L 69.445313 61.507813 L 69.445313 57.539063 L 65.476563 57.539063 L 65.476563 63.492188 L 51.585938 63.492188 L 51.585938 53.570313 Z M 94.371094 59.773438 C 90.921875 72.5 80.171875 80.667969 80.171875 80.667969 C 80.0625 80.738281 79.953125 80.820313 79.859375 80.914063 C 77.21875 82.628906 73.769531 83.332031 71.550781 83.332031 C 68.925781 83.332031 64.648438 82.355469 61.941406 79.859375 C 61.183594 79.171875 60.035156 79.171875 59.277344 79.859375 C 56.570313 82.355469 52.230469 83.332031 49.601563 83.332031 C 46.976563 83.332031 42.636719 82.355469 39.929688 79.859375 C 39.171875 79.171875 38.023438 79.171875 37.265625 79.859375 C 34.558594 82.355469 30.28125 83.332031 27.652344 83.332031 C 25.027344 83.332031 20.6875 82.355469 17.980469 79.859375 C 17.53125 79.441406 16.910156 79.265625 16.308594 79.363281 C 15.933594 79.433594 15.59375 79.605469 15.316406 79.859375 C 15.292969 79.882813 15.277344 79.898438 15.253906 79.921875 C 14.066406 79.386719 12.207031 78.371094 10.230469 76.574219 C 7.378906 73.984375 4.671875 69.863281 4.152344 63.492188 L 18.972656 63.492188 L 22.382813 66.902344 C 22.761719 67.273438 23.28125 67.476563 23.808594 67.460938 L 67.460938 67.460938 C 67.878906 67.46875 68.296875 67.335938 68.636719 67.089844 L 76.140625 61.445313 Z M 16.308594 87.300781 C 15.933594 87.371094 15.59375 87.542969 15.316406 87.796875 C 12.609375 90.292969 8.269531 91.269531 5.640625 91.269531 C 4.410156 91.269531 3.378906 91.144531 2.355469 90.960938 C 1.277344 90.75 0.242188 91.464844 0.03125 92.539063 C -0.179688 93.617188 0.535156 94.65625 1.613281 94.867188 C 2.789063 95.074219 4.132813 95.238281 5.640625 95.238281 C 8.742188 95.238281 13.019531 94.167969 16.617188 91.519531 C 20.222656 94.199219 24.546875 95.238281 27.652344 95.238281 C 30.753906 95.238281 34.96875 94.167969 38.566406 91.519531 C 42.171875 94.191406 46.496094 95.238281 49.601563 95.238281 C 52.710938 95.238281 57.035156 94.199219 60.640625 91.519531 C 64.234375 94.167969 68.453125 95.238281 71.550781 95.238281 C 74.660156 95.238281 78.984375 94.199219 82.589844 91.519531 C 86.183594 94.167969 90.464844 95.238281 93.5625 95.238281 C 95.316406 95.238281 96.773438 94.921875 97.964844 94.433594 C 98.996094 94.019531 99.492188 92.859375 99.082031 91.828125 C 98.671875 90.796875 97.507813 90.300781 96.476563 90.710938 C 95.71875 91.023438 94.8125 91.269531 93.5625 91.269531 C 90.9375 91.269531 86.597656 90.292969 83.890625 87.796875 C 83.132813 87.109375 81.984375 87.109375 81.226563 87.796875 C 78.519531 90.292969 74.179688 91.269531 71.550781 91.269531 C 68.925781 91.269531 64.648438 90.292969 61.941406 87.796875 C 61.183594 87.109375 60.035156 87.109375 59.277344 87.796875 C 56.570313 90.292969 52.230469 91.269531 49.601563 91.269531 C 46.976563 91.269531 42.636719 90.292969 39.929688 87.796875 C 39.171875 87.109375 38.023438 87.109375 37.265625 87.796875 C 34.558594 90.292969 30.28125 91.269531 27.652344 91.269531 C 25.027344 91.269531 20.6875 90.292969 17.980469 87.796875 C 17.53125 87.378906 16.910156 87.199219 16.308594 87.300781 Z "/>
</g>
</svg>
