<?xml version="1.0" encoding="UTF-8"?>
<svg xmlns="http://www.w3.org/2000/svg" xmlns:xlink="http://www.w3.org/1999/xlink" width="100pt" height="100pt" viewBox="0 0 100 100" version="1.1">
<g id="surface1">
    <path style=" stroke:none;fill-rule:nonzero;fill:#000000;fill-opacity:1;" d="M 47.308594 0 C 46.804688 0.101563 46.363281 0.386719 46.070313 0.804688 L 31.992188 20.089844 C 31.382813 20.964844 31.566406 22.175781 32.429688 22.816406 L 51.710938 36.832031 C 51.75 36.875 51.789063 36.914063 51.835938 36.953125 C 52.71875 37.464844 53.84375 37.226563 54.441406 36.394531 L 68.515625 17.175781 C 68.832031 16.75 68.964844 16.214844 68.878906 15.6875 C 68.800781 15.167969 68.515625 14.695313 68.082031 14.386719 L 48.796875 0.371094 C 48.417969 0.101563 47.960938 -0.03125 47.496094 0 C 47.433594 0 47.371094 0 47.308594 0 Z M 73.039063 0 C 72.09375 0.179688 71.414063 1.015625 71.429688 1.984375 L 71.429688 25.792969 C 71.429688 26.886719 72.320313 27.777344 73.414063 27.777344 L 97.222656 27.777344 C 98.316406 27.777344 99.207031 26.886719 99.207031 25.792969 L 99.207031 1.984375 C 99.207031 0.890625 98.316406 0 97.222656 0 L 73.414063 0 C 73.351563 0 73.289063 0 73.226563 0 C 73.164063 0 73.101563 0 73.039063 0 Z M 75.398438 3.96875 L 95.238281 3.96875 L 95.238281 23.808594 L 75.398438 23.808594 Z M 48.113281 4.773438 L 64.113281 16.429688 L 52.457031 32.488281 L 36.394531 20.769531 Z M 1.613281 23.808594 C 0.667969 23.988281 -0.015625 24.824219 0 25.792969 L 0 49.417969 C 0 49.480469 0 49.542969 0 49.601563 C 0 49.664063 0 49.726563 0 49.789063 L 0 73.226563 C 0 73.289063 0 73.351563 0 73.414063 C 0 73.476563 0 73.535156 0 73.597656 L 0 97.222656 C 0 98.316406 0.890625 99.207031 1.984375 99.207031 L 73.414063 99.207031 C 74.503906 99.207031 75.398438 98.316406 75.398438 97.222656 L 75.398438 73.414063 C 75.398438 72.320313 74.503906 71.429688 73.414063 71.429688 L 51.585938 71.429688 L 51.585938 49.601563 C 51.585938 48.511719 50.695313 47.617188 49.601563 47.617188 L 27.777344 47.617188 L 27.777344 25.792969 C 27.777344 24.699219 26.886719 23.808594 25.792969 23.808594 L 1.984375 23.808594 C 1.921875 23.808594 1.859375 23.808594 1.796875 23.808594 C 1.734375 23.808594 1.675781 23.808594 1.613281 23.808594 Z M 3.96875 27.777344 L 23.808594 27.777344 L 23.808594 47.617188 L 3.96875 47.617188 Z M 86.558594 30.628906 C 86.449219 30.644531 86.347656 30.660156 86.246094 30.691406 L 63.679688 38.257813 C 63.175781 38.425781 62.753906 38.792969 62.523438 39.265625 C 62.289063 39.746094 62.257813 40.292969 62.4375 40.796875 L 69.941406 63.367188 C 69.957031 63.40625 69.980469 63.453125 70.003906 63.492188 C 70.40625 64.460938 71.492188 64.949219 72.484375 64.609375 L 95.050781 57.042969 C 96.066406 56.695313 96.617188 55.585938 96.292969 54.5625 L 88.726563 31.992188 C 88.433594 31.070313 87.519531 30.492188 86.558594 30.628906 Z M 85.628906 35.09375 L 91.890625 53.945313 L 73.101563 60.207031 L 66.839844 41.417969 Z M 3.96875 51.585938 L 23.808594 51.585938 L 23.808594 71.429688 L 3.96875 71.429688 Z M 27.777344 51.585938 L 47.617188 51.585938 L 47.617188 71.429688 L 27.777344 71.429688 Z M 3.96875 75.398438 L 23.808594 75.398438 L 23.808594 95.238281 L 3.96875 95.238281 Z M 27.777344 75.398438 L 47.617188 75.398438 L 47.617188 95.238281 L 27.777344 95.238281 Z M 51.585938 75.398438 L 71.429688 75.398438 L 71.429688 95.238281 L 51.585938 95.238281 Z "/>
</g>
</svg>
