<?xml version="1.0" encoding="UTF-8"?>
<svg xmlns="http://www.w3.org/2000/svg" xmlns:xlink="http://www.w3.org/1999/xlink" width="100pt" height="100pt" viewBox="0 0 100 100" version="1.1">
<g id="surface1">
<path style=" stroke:none;fill-rule:nonzero;fill:#000000;fill-opacity:1;" d="M 49.601563 3.96875 C 29.878906 3.96875 13.890625 9.300781 13.890625 15.871094 L 13.890625 49.601563 C 13.890625 59.6875 24.640625 87.464844 49.601563 93.253906 C 74.566406 87.464844 85.316406 59.6875 85.316406 49.601563 L 85.316406 15.871094 C 85.316406 9.300781 69.328125 3.96875 49.601563 3.96875 Z M 49.601563 7.9375 C 70.4375 7.9375 81.347656 13.835938 81.347656 15.871094 L 81.347656 49.601563 C 81.347656 57.8125 72.753906 80.402344 53.570313 87.890625 L 53.570313 75.398438 L 45.636719 75.398438 L 45.636719 87.890625 C 26.453125 80.402344 17.855469 57.8125 17.855469 49.601563 L 17.855469 15.871094 C 17.855469 13.835938 28.769531 7.9375 49.601563 7.9375 Z M 33.730469 21.824219 C 29.769531 21.824219 25.507813 23.570313 21.824219 29.761719 C 25.699219 27.066406 28.996094 25.792969 31.746094 25.792969 C 37.078125 25.792969 39.738281 32.039063 40.550781 32.863281 C 41.714844 34.023438 43.597656 34.023438 44.765625 32.863281 C 45.929688 31.699219 45.929688 29.816406 44.765625 28.644531 C 44.039063 27.925781 40.550781 21.824219 33.730469 21.824219 Z M 65.476563 21.824219 C 58.65625 21.824219 55.167969 27.925781 54.441406 28.644531 C 53.277344 29.816406 53.277344 31.699219 54.441406 32.863281 C 55.609375 34.023438 57.492188 34.023438 58.65625 32.863281 C 59.46875 32.039063 62.128906 25.792969 67.460938 25.792969 C 70.210938 25.792969 73.503906 27.066406 77.382813 29.761719 C 73.699219 23.570313 69.4375 21.824219 65.476563 21.824219 Z M 31.746094 33.730469 C 28.492188 33.730469 25.632813 34.910156 23.808594 36.707031 C 25.632813 38.503906 28.492188 39.683594 31.746094 39.683594 C 35 39.683594 37.859375 38.503906 39.683594 36.707031 C 37.859375 34.910156 35 33.730469 31.746094 33.730469 Z M 67.460938 33.730469 C 64.207031 33.730469 61.34375 34.910156 59.523438 36.707031 C 61.34375 38.503906 64.207031 39.683594 67.460938 39.683594 C 70.714844 39.683594 73.574219 38.503906 75.398438 36.707031 C 73.574219 34.910156 70.714844 33.730469 67.460938 33.730469 Z M 21.824219 51.585938 L 31.746094 67.460938 L 45.636719 67.460938 L 49.601563 63.492188 L 53.570313 67.460938 L 67.460938 67.460938 L 77.382813 51.585938 L 65.476563 61.507813 L 57.539063 61.507813 L 51.585938 55.554688 L 47.617188 55.554688 L 41.667969 61.507813 L 33.730469 61.507813 Z "/>
</g>
</svg>
