<?xml version="1.0" encoding="utf-8"?>
<!-- Generator: Adobe Illustrator 23.0.3, SVG Export Plug-In . SVG Version: 6.00 Build 0)  -->
<svg version="1.1" id="Layer_1" xmlns="http://www.w3.org/2000/svg" xmlns:xlink="http://www.w3.org/1999/xlink" x="0px" y="0px"
	 viewBox="0 0 89 89" style="enable-background:new 0 0 89 89;" xml:space="preserve">
<style type="text/css">
	.st0{fill:#FFF2F6;}
	.st1{fill:#FF5589;}
</style>
<title>1</title>
<circle class="st0" cx="44.5" cy="44.5" r="44.5"/>
<g id="surface1">
	<path class="st1" d="M45.3,25.4c-5.1,0-10,1.6-13.6,4.9c-3.7,3.3-6,8.4-6,15.1c0,11,8.5,22.3,20.6,22.3h0.1l0,0
		c2.5,0,4.9-0.8,6.7-2.5c1.8-1.6,2.9-3.9,2.9-6.9c0-1.7-0.7-2.9-1.2-3.9l0,0c-0.6-1.4-0.4-2.2,0.1-2.9c0.6-0.7,1.7-1.4,3-2.4
		c2.5-1.9,5.7-4.8,5.6-10.9c0-2.2-1.2-5.3-4.1-7.9C56.6,27.4,52,25.4,45.3,25.4z M45.3,27c6.5,0,10.5,1.9,13.2,4.2
		c2.5,2.3,3.5,5.1,3.5,6.7c0,5.6-2.5,7.8-4.9,9.6c-1.2,0.8-2.5,1.7-3.3,2.8c-0.8,1.1-1.1,2.6-0.4,4.4l0,0c0.5,1.2,1.1,2.3,1.1,3.3
		c0,2.5-1,4.4-2.4,5.7c-1.4,1.3-3.5,2-5.6,2h-0.1c-11.1,0.1-19-10.3-19-20.5c0-6.3,2.2-10.9,5.4-13.9C36,28.5,40.5,27,45.3,27z
		 M45.4,29.5c-1.1,0-2,0.6-2.8,1.4c-0.7,0.8-1.1,1.9-1.1,3.2s0.4,2.4,1.1,3.2c0.7,0.8,1.7,1.4,2.8,1.4c1.1,0,2-0.6,2.8-1.4
		c0.7-0.8,1.1-1.9,1.1-3.2s-0.4-2.4-1.1-3.2C47.5,30.1,46.5,29.5,45.4,29.5z M45.4,31.3c0.5,0,1.1,0.2,1.4,0.8
		c0.4,0.5,0.7,1.3,0.7,2.2s-0.2,1.7-0.7,2.2c-0.4,0.5-1,0.8-1.4,0.8s-1.1-0.2-1.4-0.8c-0.4-0.5-0.7-1.3-0.7-2.2s0.2-1.7,0.7-2.2
		C44.5,31.6,45,31.3,45.4,31.3z M36.1,33.8c-1.1,0-2,0.6-2.8,1.4c-0.7,0.8-1,1.9-1,3.1s0.4,2.4,1.1,3.2c0.7,0.8,1.7,1.4,2.8,1.4
		c1.1,0,2-0.6,2.8-1.4s1.1-1.9,1.1-3.2c0-1.2-0.4-2.4-1.1-3.2C38.3,34.3,37.3,33.8,36.1,33.8z M54.8,33.8c-1.1,0-2,0.6-2.8,1.4
		c-0.7,0.8-1.1,1.9-1.1,3.1s0.4,2.4,1.1,3.2c0.7,0.8,1.7,1.4,2.8,1.4c1.1,0,2-0.6,2.8-1.4s1.1-1.9,1.1-3.2c0-1.2-0.4-2.4-1.1-3.2
		C56.8,34.4,55.9,33.8,54.8,33.8z M36.1,35.5c0.5,0,1.1,0.2,1.4,0.8c0.4,0.5,0.7,1.3,0.7,2.2c0,0.8-0.2,1.7-0.7,2.2
		c-0.4,0.5-1,0.8-1.4,0.8s-1.1-0.2-1.4-0.8c-0.4-0.5-0.7-1.3-0.7-2.2c0-0.8,0.2-1.7,0.7-2.2C35.2,35.8,35.6,35.5,36.1,35.5z
		 M54.8,35.5c0.5,0,1.1,0.2,1.4,0.8c0.4,0.5,0.7,1.3,0.7,2.2c0,0.8-0.2,1.7-0.7,2.2c-0.4,0.5-1,0.8-1.4,0.8s-1.1-0.2-1.4-0.8
		c-0.4-0.5-0.7-1.3-0.7-2.2c0-0.8,0.2-1.7,0.7-2.2C53.7,35.8,54.2,35.5,54.8,35.5z M35.3,44.7c-1.1,0-2,0.6-2.8,1.4
		c-0.7,0.8-1.1,1.9-1.1,3.2c0,1.2,0.4,2.4,1.1,3.2c0.7,0.8,1.7,1.4,2.8,1.4c1.1,0,2-0.6,2.8-1.4c0.7-0.8,1.1-1.9,1.1-3.2
		c0-1.2-0.4-2.4-1.1-3.2C37.4,45.3,36.5,44.7,35.3,44.7z M35.3,46.4c0.5,0,1.1,0.2,1.4,0.8c0.4,0.5,0.7,1.3,0.7,2.2
		c0,0.8-0.2,1.7-0.7,2.2c-0.4,0.5-1,0.8-1.4,0.8s-1.1-0.2-1.4-0.8c-0.4-0.5-0.7-1.3-0.7-2.2c0-0.8,0.2-1.7,0.7-2.2
		C34.3,46.8,34.8,46.4,35.3,46.4z M45.9,53.2c-2.8,0-5,2.3-5,5s2.3,5,5,5c2.8,0,5-2.3,5-5C51,55.5,48.7,53.2,45.9,53.2z M45.9,54.9
		c1.9,0,3.3,1.4,3.3,3.3s-1.4,3.3-3.3,3.3s-3.3-1.4-3.3-3.3C42.5,56.3,44,54.9,45.9,54.9z"/>
</g>
</svg>
