<?xml version="1.0" encoding="utf-8"?>
<!-- Generator: Adobe Illustrator 23.0.3, SVG Export Plug-In . SVG Version: 6.00 Build 0)  -->
<svg version="1.1" id="Layer_1" xmlns="http://www.w3.org/2000/svg" xmlns:xlink="http://www.w3.org/1999/xlink" x="0px" y="0px"
	 viewBox="0 0 89 89" style="enable-background:new 0 0 89 89;" xml:space="preserve">
<style type="text/css">
	.st0{fill:#EDF4FD;}
	.st1{fill:#1A73E8;}
</style>
<title>2</title>
<circle class="st0" cx="44.5" cy="44.5" r="44.5"/>
<g id="surface1">
	<path class="st1" d="M56,21.8c-2.5,0-4.6,1.9-4.9,4.3H51c-9.5-1.6-14.4,10-16.5,11.6c-1,0.7-3.5,0.8-6,1.2
		c-1.3,0.2-2.5,0.5-3.6,1.1s-2,1.7-2.4,3.2l0,0c-0.4,1-0.4,2.1,0,3.3c0.4,1.3,1.3,2.6,2.4,4c2.2,2.7,5.6,5.5,9.8,8.1
		c0.9,3.2,3.8,5.6,7.3,5.6c1,0,2-0.2,2.9-0.6c2.9,1,5.6,1.5,7.8,1.5s4-0.6,4.9-2l0,0l0.1-0.1c0.8-1,1.5-2.3,1.4-3.8
		c-0.1-1.6-0.8-3.4-2.4-6c-0.6-1-0.4-2.5,0.2-4.5c0.7-2,1.8-4.4,2.6-6.8c0.8-2.5,1.5-5,1-7.5c-0.2-1.3-0.8-2.5-1.7-3.7
		c1.2-0.9,1.9-2.3,1.9-3.9C60.9,24,58.7,21.8,56,21.8z M56,23.7c1.6,0,3,1.4,3,3c0,1.1-0.5,2-1.4,2.6c-0.7-0.6-1.4-1.1-2.3-1.6l0,0
		c-0.8-0.4-1.6-0.8-2.3-1C53,25,54.3,23.7,56,23.7z M48.9,27.7c1.6,0,3.4,0.5,5.5,1.6c2.9,1.6,4,3.3,4.4,5.3s-0.1,4.3-0.9,6.6
		c-0.8,2.3-1.9,4.7-2.6,6.8c-0.7,2.2-1.1,4.3-0.1,6.1c0.6,1,1.1,1.9,1.4,2.7c-0.4-0.6-0.9-1.2-1.4-1.9c-2.5-2.9-6.4-6-11.1-8.7
		c-5.4-3.1-10.7-5-14.7-5.4c2.2-0.3,4.6-0.3,6.3-1.5C39.2,36.5,42,27.7,48.9,27.7z M27.8,42.5c3.6,0,9.4,1.8,15.3,5.2
		c4.5,2.6,8.3,5.7,10.6,8.4c1.2,1.3,2,2.6,2.4,3.6s0.3,1.8,0.1,2.3c-0.4,0.7-1.5,1.2-3.4,1.2c-1.6,0-3.5-0.4-5.7-1
		c1.5-1.4,2.5-3.4,2.5-5.6c0-4.2-3.4-7.5-7.5-7.5c-4,0-7.3,3.1-7.5,7.1c-3.5-2.3-6.3-4.7-8.1-6.9c-1-1.3-1.7-2.4-2-3.4
		s-0.3-1.6,0-2.1C24.8,43.1,25.9,42.5,27.8,42.5z M42,51c3.2,0,5.7,2.5,5.7,5.7s-2.5,5.7-5.7,5.7s-5.7-2.5-5.7-5.7
		C36.4,53.5,38.8,51,42,51z"/>
</g>
</svg>
