<?xml version="1.0" encoding="utf-8"?>
<!-- Generator: Adobe Illustrator 23.0.3, SVG Export Plug-In . SVG Version: 6.00 Build 0)  -->
<svg version="1.1" id="Layer_1" xmlns="http://www.w3.org/2000/svg" xmlns:xlink="http://www.w3.org/1999/xlink" x="0px" y="0px"
	 viewBox="0 0 88.9 88.9" style="enable-background:new 0 0 88.9 88.9;" xml:space="preserve">
<style type="text/css">
	.st0{fill:#F0FAEF;}
	.st1{fill:#3FC438;}
</style>
<title>3</title>
<circle class="st0" cx="44.5" cy="44.5" r="44.5"/>
<g id="surface1">
	<path class="st1" d="M23.7,25.6c-0.5,0-0.9,0.4-0.9,0.9v14.6c0,0.1,0,0.3,0,0.4v10.9c0,0.5,0.4,0.9,0.9,0.9h31.4
		c0.5,0,0.9-0.4,0.9-0.9v-7.2c0-0.1,0-0.2,0-0.3V26.5c0-0.5-0.4-0.9-0.9-0.9H23.7z M24.7,27.5h29.6v15.3l-4.9-4.9
		c-0.2-0.2-0.4-0.3-0.7-0.3c-0.2,0-0.5,0.1-0.7,0.3L44,41.8l-9.5-10.4c-0.2-0.2-0.4-0.3-0.7-0.3c-0.2,0-0.5,0.1-0.7,0.2l-8.6,7.8
		L24.7,27.5L24.7,27.5z M48.7,30.2c-1,0-1.9,0.8-1.9,1.9c0,1,0.8,1.9,1.9,1.9c1,0,1.9-0.8,1.9-1.9C50.5,31.1,49.6,30.2,48.7,30.2z
		 M57.9,30.2v1.9h0.9v24H29.3v-0.9h-1.9V57c0,0.5,0.4,0.9,0.9,0.9h31.4c0.5,0,0.9-0.4,0.9-0.9V31.2c0-0.5-0.4-0.9-0.9-0.9L57.9,30.2
		L57.9,30.2z M33.8,33.3l8.9,9.8l-2.1,2.2c-0.2,0.2-0.3,0.6-0.3,0.9c0.1,0.3,0.3,0.6,0.7,0.7c0.3,0.1,0.7,0,0.9-0.3l2.5-2.6
		c0.2-0.1,0.3-0.2,0.4-0.4l3.8-3.8l5.6,5.6v6.2H24.7v-9.8L33.8,33.3z M62.5,34.8v1.9h0.9v24H33.9v-0.9H32v1.9c0,0.5,0.4,0.9,0.9,0.9
		h31.4c0.5,0,0.9-0.4,0.9-0.9V35.8c0-0.5-0.4-0.9-0.9-0.9L62.5,34.8L62.5,34.8z"/>
</g>
</svg>
