<?xml version="1.0" encoding="utf-8"?>
<!-- Generator: Adobe Illustrator 23.0.3, SVG Export Plug-In . SVG Version: 6.00 Build 0)  -->
<svg version="1.1" id="Layer_1" xmlns="http://www.w3.org/2000/svg" xmlns:xlink="http://www.w3.org/1999/xlink" x="0px" y="0px"
	 viewBox="0 0 88.9 88.9" style="enable-background:new 0 0 88.9 88.9;" xml:space="preserve">
<style type="text/css">
	.st0{fill:#FFF4F4;}
	.st1{fill:#FF7070;}
</style>
<title>4</title>
<circle class="st0" cx="44.4" cy="44.4" r="44.4"/>
<g id="surface1">
	<path class="st1" d="M26.7,26.7c-1.9,0-3.4,1.5-3.4,3.4s1.5,3.4,3.4,3.4s3.4-1.5,3.4-3.4S28.6,26.7,26.7,26.7z M26.7,28.4
		c1,0,1.7,0.7,1.7,1.7s-0.7,1.7-1.7,1.7S25,31,25,30.1S25.7,28.4,26.7,28.4z M33.5,29.2v1.7h32.2v-1.7H33.5z M26.7,41
		c-1.9,0-3.4,1.5-3.4,3.4s1.5,3.4,3.4,3.4s3.4-1.5,3.4-3.4S28.6,41,26.7,41z M26.7,42.7c1,0,1.7,0.7,1.7,1.7c0,1-0.7,1.7-1.7,1.7
		S25,45.4,25,44.4S25.7,42.7,26.7,42.7z M33.5,43.5v1.7h32.2v-1.7H33.5z M26.7,55.4c-1.9,0-3.4,1.5-3.4,3.4s1.5,3.4,3.4,3.4
		s3.4-1.5,3.4-3.4S28.6,55.4,26.7,55.4z M26.7,57.1c1,0,1.7,0.7,1.7,1.7c0,1-0.7,1.7-1.7,1.7S25,59.8,25,58.8
		C25,57.9,25.7,57.1,26.7,57.1z M33.5,58v1.7h32.2V58H33.5z"/>
</g>
</svg>
