<?xml version="1.0" encoding="utf-8"?>
<!-- Generator: Adobe Illustrator 23.0.3, SVG Export Plug-In . SVG Version: 6.00 Build 0)  -->
<svg version="1.1" id="Layer_1" xmlns="http://www.w3.org/2000/svg" xmlns:xlink="http://www.w3.org/1999/xlink" x="0px" y="0px"
	 viewBox="0 0 89 89" style="enable-background:new 0 0 89 89;" xml:space="preserve">
<style type="text/css">
	.st0{fill:#FFF6EB;}
	.st1{fill:#FF9102;}
</style>
<title>5</title>
<circle class="st0" cx="44.5" cy="44.5" r="44.5"/>
<g id="surface1">
	<path class="st1" d="M29.4,23.4c-3.3,0-6,2.7-6,6v5c0,0.4,0.2,0.7,0.5,0.9c0.3,0.2,0.7,0.2,1,0c0.3-0.2,0.5-0.5,0.5-0.9v-5
		c0-2.2,1.8-4,4-4h5c0.4,0,0.7-0.2,0.9-0.5c0.2-0.3,0.2-0.7,0-1c-0.2-0.3-0.5-0.5-0.9-0.5H29.4z M54.6,23.4c-0.4,0-0.7,0.2-0.9,0.5
		c-0.2,0.3-0.2,0.7,0,1c0.2,0.3,0.5,0.5,0.9,0.5h5c2.2,0,4,1.8,4,4v5c0,0.4,0.2,0.7,0.5,0.9c0.3,0.2,0.7,0.2,1,0
		c0.3-0.2,0.5-0.5,0.5-0.9v-5c0-3.3-2.7-6-6-6H54.6z M35.4,37.4c-0.6,0-1,0.5-1,1v3c0,0.4,0.2,0.7,0.5,0.9c0.3,0.2,0.7,0.2,1,0
		c0.3-0.2,0.5-0.5,0.5-0.9v-3c0-0.3-0.1-0.5-0.3-0.7S35.7,37.4,35.4,37.4z M45.5,37.4c-0.6,0-1,0.5-1,1v8c0,0.6-0.4,1-1,1h-1
		c-0.4,0-0.7,0.2-0.9,0.5c-0.2,0.3-0.2,0.7,0,1c0.2,0.3,0.5,0.5,0.9,0.5h1c1.7,0,3-1.4,3-3v-8c0-0.3-0.1-0.5-0.3-0.7
		C46,37.5,45.8,37.4,45.5,37.4z M53.5,37.4c-0.6,0-1,0.5-1,1v3c0,0.4,0.2,0.7,0.5,0.9c0.3,0.2,0.7,0.2,1,0c0.3-0.2,0.5-0.5,0.5-0.9
		v-3c0-0.3-0.1-0.5-0.3-0.7C54.1,37.5,53.8,37.4,53.5,37.4z M24.4,52.5c-0.6,0-1,0.5-1,1v6c0,3.3,2.7,6,6,6h5c0.4,0,0.7-0.2,0.9-0.5
		c0.2-0.3,0.2-0.7,0-1c-0.2-0.3-0.5-0.5-0.9-0.5h-5c-2.2,0-4-1.8-4-4v-6c0-0.3-0.1-0.5-0.3-0.7S24.6,52.5,24.4,52.5z M50.5,52.5
		c-0.3,0-0.5,0.1-0.7,0.3c0,0-0.4,0.4-1.2,0.8c-0.9,0.4-2.2,0.9-4.1,0.9c-1.8,0-3.2-0.5-4.1-0.9c-0.9-0.4-1.2-0.8-1.2-0.8
		c-0.2-0.2-0.4-0.3-0.7-0.3c-0.4,0-0.8,0.3-0.9,0.6c-0.2,0.4-0.1,0.8,0.2,1.1c0,0,0.6,0.6,1.8,1.2c1.1,0.6,2.8,1.1,5,1.1
		c2.2,0,3.9-0.6,5-1.1c1.1-0.6,1.8-1.2,1.8-1.2c0.3-0.3,0.4-0.7,0.2-1.1C51.3,52.8,50.9,52.5,50.5,52.5z M64.6,52.5
		c-0.6,0-1,0.5-1,1v6c0,2.2-1.8,4-4,4h-5c-0.4,0-0.7,0.2-0.9,0.5c-0.2,0.3-0.2,0.7,0,1c0.2,0.3,0.5,0.5,0.9,0.5h5c3.3,0,6-2.7,6-6
		v-6c0-0.3-0.1-0.5-0.3-0.7S64.9,52.5,64.6,52.5z"/>
</g>
</svg>
