<?xml version="1.0" encoding="utf-8"?>
<!-- Generator: Adobe Illustrator 23.0.3, SVG Export Plug-In . SVG Version: 6.00 Build 0)  -->
<svg version="1.1" id="Layer_1" xmlns="http://www.w3.org/2000/svg" xmlns:xlink="http://www.w3.org/1999/xlink" x="0px" y="0px"
	 viewBox="0 0 88.6 88.6" style="enable-background:new 0 0 88.6 88.6;" xml:space="preserve">
<style type="text/css">
	.st0{fill:#EBFBF4;}
	.st1{fill:#00C674;}
</style>
<title>6</title>
<circle class="st0" cx="44.3" cy="44.3" r="44.3"/>
<g id="surface1">
	<path class="st1" d="M46.7,25.2c-2.8,0-4.4,0.3-5.5,0.9c-0.5,0.3-0.9,0.7-1.2,1.2s-0.3,1-0.3,1.4c0,0.7,0.4,1.3,0.9,1.6
		c0.5,0.4,1,0.6,1.6,0.8c1.2,0.4,2.6,0.5,3.8,0.3c5-0.7,7.6,0.3,9.6,1.9c-0.6,0.6-1,1.3-1.2,1.8c-0.3,0.7-0.4,1-0.7,1.3
		c-0.4,0.3-0.7,0.4-1.3,0.4c-0.5,0-1.3-0.2-2.1-0.5c-1.7-0.6-3.8-1.5-6.5-1.5c-5,0-9.6,3.5-10.5,8.8c-0.7-0.4-1.5-0.7-2.4-0.7
		c-1.2,0-2.3,0.4-3,1.2c-0.7,0.7-1.1,1.8-1.1,2.9c0,2.3,2.9,4.3,6.6,2.9c0.7,1.1,1.8,1.8,2.8,2.2c0.6,0.2,1.2,0.4,1.7,0.5
		c0.2,0,0.4,0.1,0.5,0.1c0.1,0,0.3,0,0.2,0c0.8,0.2,1.7,0.3,2.4,0.5c0.4,0.1,0.7,0.2,0.8,0.3c0.1,0.1,0.1,0.1,0.1,0.2
		c0,0.4-0.3,0.8-0.8,1.3c-0.3,0.3-0.6,0.5-0.8,0.9c-0.3,0.4-0.5,0.8-0.5,1.4c0,0.8,0.4,1.5,0.9,1.9c0.5,0.4,1.1,0.6,1.7,0.7
		c0.6,0.1,1.2,0.2,1.7,0.2c0.5,0,0.9,0.1,1,0.1c3.3,1,3.9,2.2,5.4,4.3c1,1.4,2.5,2.2,3.8,2.5c0.7,0.1,1.3,0.2,2-0.1
		c0.6-0.2,1.2-0.9,1.2-1.7c0-3.7-2.6-6.2-5-7.6c-0.5-0.3-0.8-0.4-1.3-0.6c6.2-3.7,8-9.3,8-14c1,0.5,2.1,0.8,3.2,0.9
		c0.9,0.1,1.8-0.1,2.5-0.3c0.7-0.3,1.4-0.6,1.7-1.3c0.6-1.1,0.6-2.4,0.5-3.6c-0.1-1.2-0.3-2.4-0.7-3.1c-1.7-3.1-4.5-4-7.4-4
		c-1.2-2-3.2-3.6-5.4-4.7C51.2,25.8,48.7,25.2,46.7,25.2z M46.7,26.9c1.6,0,4,0.6,6.2,1.7c2,1,3.8,2.4,4.8,4c0,0,0,0,0,0
		c-2.3-2.2-5.7-3.8-11.7-2.9c-0.9,0.1-2.1,0-3.1-0.2c-0.5-0.1-0.8-0.3-1-0.5c-0.2-0.2-0.2-0.2-0.2-0.3c0-0.3,0-0.5,0.1-0.7
		c0.1-0.2,0.2-0.3,0.5-0.5C42.7,27.2,44.1,26.9,46.7,26.9z M27.9,31.2c-0.5,0-0.8,0.5-0.8,1c0.1,0.5,0.5,0.8,1,0.8h8.8
		c0.3,0,0.6-0.2,0.8-0.4c0.2-0.3,0.2-0.6,0-0.9c-0.2-0.3-0.4-0.4-0.8-0.4h-8.8C28,31.2,28,31.2,27.9,31.2
		C27.9,31.2,27.9,31.2,27.9,31.2z M57.8,32.9c0,0,0.1,0.1,0.1,0.1c0.2,0.3,0.5,0.5,0.8,0.5c2.7-0.1,4.8,0.5,6.2,3.1
		c0.2,0.3,0.5,1.4,0.6,2.5c0.1,1.1,0,2.2-0.3,2.7c0-0.1-0.3,0.2-0.8,0.4c-0.5,0.2-1.2,0.3-1.8,0.2c-1.4-0.1-2.6-0.4-3.7-1.2
		c-0.3-0.2-0.6-0.2-0.9,0c-0.3,0.2-0.5,0.5-0.4,0.8c0.3,4.8-1,10.5-7.9,14.3c1.5-1.3,3.2-3.5,3.2-6.9c0-3-1.7-5.4-4.1-6.8
		c-0.3-0.2-0.6-0.2-0.9-0.1c-0.3,0.2-0.5,0.5-0.5,0.8c0,0.3,0.2,0.6,0.5,0.8c2,1.2,3.2,2.8,3.2,5.3c0,4.1-2.8,5.9-4,6.7L47,57.4
		c0,0,0.2,0.1,0.2,0.1c0.1,0,0.1,0,0.1,0c0,0,0,0,0.1,0c0,0,0,0,0.1,0c0.1,0,0.2,0,0.3,0.1c0.2,0.1,0.6,0.2,1,0.3
		c0.8,0.3,1.9,0.7,3,1.4c2.2,1.3,4.2,3.1,4.2,6.1c0,0,0,0-0.1,0c-0.1,0.1-0.5,0.1-1,0c-0.9-0.2-2.1-0.9-2.7-1.8
		c-1.4-2.1-2.6-3.8-6.3-5c-0.5-0.1-0.9-0.2-1.4-0.2c-0.5,0-1-0.1-1.5-0.2c-0.5-0.1-0.9-0.2-1-0.4c-0.2-0.2-0.3-0.2-0.3-0.6
		c0-0.1,0-0.1,0.2-0.3c0.1-0.2,0.4-0.4,0.7-0.7c0.6-0.5,1.4-1.4,1.4-2.6c0-0.7-0.4-1.3-0.8-1.6c-0.4-0.3-0.9-0.5-1.4-0.6
		c-1-0.2-2-0.3-2.4-0.4C39,51,39,51,38.8,51c-0.1,0-0.3-0.1-0.5-0.1c-0.4-0.1-0.9-0.2-1.4-0.4c-1-0.4-1.9-1-2.3-1.9
		c-0.1-0.2-0.3-0.4-0.5-0.5c-0.2-0.1-0.5-0.1-0.7,0c-3.2,1.6-4.7-0.4-4.7-1.2c0-0.7,0.2-1.3,0.6-1.6c0.4-0.4,0.9-0.6,1.7-0.6
		c1.1,0,2,0.6,2.2,1.3c0.1,0.4,0.5,0.6,0.9,0.6c0.4-0.1,0.7-0.4,0.7-0.8c0-5.5,4.2-9.1,9-9.1c2.2,0,4.1,0.8,5.9,1.4
		c0.9,0.3,1.7,0.6,2.6,0.6c0.9,0.1,1.8-0.2,2.5-0.8c0.8-0.6,1-1.4,1.2-2c0.2-0.6,0.5-1.1,1.4-1.9C57.9,33.7,58,33.2,57.8,32.9z
		 M26.5,34.6c-0.5,0-0.8,0.5-0.8,0.9c0,0.5,0.5,0.8,0.9,0.8h6.1c0.3,0,0.6-0.2,0.8-0.4c0.2-0.3,0.2-0.6,0-0.9
		c-0.2-0.3-0.4-0.4-0.8-0.4h-6.1C26.6,34.6,26.6,34.6,26.5,34.6C26.5,34.6,26.5,34.6,26.5,34.6z M63.4,37.2c-0.7,0-1.3,0.6-1.3,1.3
		s0.6,1.3,1.3,1.3c0.7,0,1.3-0.6,1.3-1.3S64.1,37.2,63.4,37.2z M25.1,38.1c-0.5,0-0.8,0.5-0.8,0.9c0,0.5,0.5,0.8,0.9,0.8h5.5
		c0.3,0,0.6-0.2,0.8-0.4c0.2-0.3,0.2-0.6,0-0.9c-0.2-0.3-0.4-0.4-0.8-0.4h-5.5C25.2,38.1,25.2,38.1,25.1,38.1
		C25.1,38.1,25.1,38.1,25.1,38.1z"/>
</g>
</svg>
